<svg width="33" height="33" viewBox="0 0 33 33" fill="none" xmlns="http://www.w3.org/2000/svg">
<path fill-rule="evenodd" clip-rule="evenodd" d="M17.5542 2.34504C17.3857 2.0037 17.0381 1.7876 16.6575 1.7876C16.2768 1.7876 15.9292 2.0037 15.7607 2.34504L11.8788 10.2107L3.19937 11.4686C2.82248 11.5232 2.50932 11.7872 2.3917 12.1494C2.27407 12.5116 2.37239 12.9092 2.64529 13.1748L8.9349 19.2971L7.45187 27.9425C7.38751 28.3177 7.54173 28.6969 7.84968 28.9206C8.15764 29.1444 8.56591 29.1739 8.90283 28.9967L16.6663 24.915L24.4113 28.9963C24.7482 29.1738 25.1567 29.1446 25.4649 28.9209C25.7731 28.6972 25.9275 28.3179 25.8631 27.9425L24.38 19.2971L30.6696 13.1748C30.9425 12.9092 31.0409 12.5116 30.9232 12.1494C30.8056 11.7872 30.4925 11.5232 30.1156 11.4686L21.4361 10.2107L17.5542 2.34504ZM13.4395 11.5675L16.6575 5.04717L19.8754 11.5675C20.0211 11.8628 20.3028 12.0674 20.6287 12.1146L27.8207 13.1569L22.608 18.231C22.3719 18.4608 22.2642 18.792 22.3199 19.1167L23.5489 26.2811L17.133 22.9002C16.8415 22.7466 16.4931 22.7465 16.2014 22.8998L9.76567 26.2835L10.9951 19.1167C11.0508 18.792 10.943 18.4608 10.707 18.231L5.49421 13.1569L12.6862 12.1146C13.0121 12.0674 13.2938 11.8628 13.4395 11.5675ZM16.6667 11.1183C17.219 11.1183 17.6667 11.566 17.6667 12.1183V12.285H19C19.5523 12.285 20 12.7327 20 13.285C20 13.8373 19.5523 14.285 19 14.285H16.6667H16.0834C15.8845 14.285 15.6937 14.364 15.553 14.5047C15.4124 14.6453 15.3334 14.8361 15.3334 15.035C15.3334 15.2339 15.4124 15.4247 15.553 15.5653C15.6937 15.706 15.8845 15.785 16.0834 15.785H17.25C17.9794 15.785 18.6788 16.0747 19.1946 16.5904C19.7103 17.1062 20 17.8056 20 18.535C20 19.2643 19.7103 19.9638 19.1946 20.4795C18.7781 20.896 18.2418 21.1651 17.6667 21.2533V21.4517C17.6667 22.0039 17.219 22.4517 16.6667 22.4517C16.1144 22.4517 15.6667 22.0039 15.6667 21.4517V21.285H14.3334C13.7811 21.285 13.3334 20.8373 13.3334 20.285C13.3334 19.7327 13.7811 19.285 14.3334 19.285L16.6667 19.285L17.25 19.285C17.4489 19.285 17.6397 19.206 17.7804 19.0653C17.921 18.9247 18 18.7339 18 18.535C18 18.3361 17.921 18.1453 17.7804 18.0047C17.6397 17.864 17.4489 17.785 17.25 17.785H16.0834C15.354 17.785 14.6545 17.4953 14.1388 16.9795C13.6231 16.4638 13.3334 15.7643 13.3334 15.035C13.3334 14.3056 13.6231 13.6062 14.1388 13.0905C14.5553 12.674 15.0916 12.4049 15.6667 12.3167V12.1183C15.6667 11.566 16.1144 11.1183 16.6667 11.1183Z" fill="url(#paint0_radial_6382_10152)"/>
<defs>
<radialGradient id="paint0_radial_6382_10152" cx="0" cy="0" r="1" gradientUnits="userSpaceOnUse" gradientTransform="translate(27.4692 1.7876) rotate(-180) scale(25.1265 51.7985)">
<stop stop-color="#E681BF"/>
<stop offset="0.6875" stop-color="#544BFD"/>
<stop offset="0.817708" stop-color="#5249FE"/>
<stop offset="1" stop-color="#352BFD"/>
</radialGradient>
</defs>
</svg>
