<svg width="103" height="64" viewBox="0 0 103 64" fill="none" xmlns="http://www.w3.org/2000/svg">
<path fill-rule="evenodd" clip-rule="evenodd" d="M65.1497 53.1658C65.1497 50.7277 60.7641 35.383 60.7641 35.383C60.7641 35.383 56.3778 50.7277 56.3778 53.1658C56.3778 54.3368 56.8399 55.4598 57.6625 56.2879C58.4851 57.1159 59.6008 57.581 60.7641 57.581C61.9275 57.581 63.0431 57.1159 63.8657 56.2879C64.6883 55.4598 65.1504 54.3368 65.1504 53.1658H65.1497ZM51.6335 39.1239C51.6335 38.5685 51.3784 38.2904 50.869 38.2904H50.0084V44.2241H50.869C51.3784 44.2241 51.6335 43.9468 51.6335 43.3906V39.1239ZM52.1171 57.6001C51.9022 57.2367 51.747 56.7292 51.6509 56.0763C51.5548 55.4241 51.4957 54.6172 51.4745 53.655C51.4542 52.7408 51.4436 51.8265 51.4427 50.9121C51.4427 50.0892 51.4208 49.3037 51.3784 48.5548C51.336 47.5719 51.0279 47.079 50.455 47.079H50.0084V57.6001H46.79V35.3395H51.4109C52.6326 35.3395 53.5015 35.6016 54.0162 36.125C54.5309 36.6492 54.7883 37.5209 54.7883 38.7391V42.8458C54.7883 43.6793 54.6324 44.3742 54.3213 44.9304C54.0102 45.4866 53.4145 45.818 52.535 45.9247V46.0527C52.8741 46.0961 53.1511 46.2081 53.363 46.3894C53.575 46.5715 53.7506 46.8062 53.8891 47.095C54.0268 47.3845 54.1283 47.7098 54.1918 48.0732C54.2554 48.4374 54.2978 48.8222 54.319 49.2283C54.3402 49.6131 54.3614 50.0359 54.3833 50.4953C54.4038 50.9555 54.4197 51.415 54.431 51.8744C54.4416 52.3346 54.4575 52.7673 54.4787 53.1734C54.4991 53.5803 54.5105 53.9331 54.5105 54.2325C54.5317 54.874 54.5953 55.4729 54.702 56.0283C54.808 56.5845 54.9669 57.066 55.1796 57.4721V57.6001H52.1171ZM38.6426 57.6001V35.3395H45.4298V38.2904H41.861V44.3529H45.2065V47.3037H41.861V54.6485H45.4941V57.6001H38.6426ZM35.3121 38.2904V57.6001H32.0945V38.2904H29.9592V35.3395H37.4474V38.2904H35.3129H35.3121ZM25.7568 42.3315H25.6297L25.1195 49.0035H26.2988L25.7568 42.3315ZM26.9679 57.6001L26.3624 52.0511H24.9924L24.3868 57.6001H21.3592L23.9402 35.3395H27.5734L30.1538 57.6001H26.9671H26.9679ZM19.1134 57.6001H16.2129L15.0662 48.106C15.0223 47.7537 14.9849 47.4006 14.9542 47.047C14.9247 46.7158 14.8982 46.3843 14.8747 46.0527C14.8548 45.7105 14.8336 45.3684 14.8111 45.0264H14.7475C14.7263 45.3471 14.7044 45.6892 14.6839 46.0527C14.662 46.3521 14.6355 46.6835 14.6037 47.047C14.5719 47.4111 14.5348 47.7631 14.4924 48.106L13.2806 57.6001H10.3491L7.7998 35.3395H10.9546L12.0067 47.4637C12.0272 47.7639 12.0484 48.106 12.0696 48.4908C12.0908 48.8755 12.1119 49.2496 12.1339 49.613L12.1975 50.8641H12.2611L12.3246 49.613L12.3882 48.4908C12.4094 48.106 12.4412 47.7639 12.4843 47.4637L13.5365 35.3395H16.2122L17.2643 47.4637C17.2847 47.7845 17.3066 48.138 17.3278 48.5228C17.3483 48.9075 17.3702 49.271 17.3914 49.613C17.4126 49.9978 17.4338 50.4047 17.455 50.8321H17.5186C17.5563 50.0621 17.5989 49.2923 17.6465 48.5228C17.6677 48.138 17.6995 47.7845 17.7419 47.4637L18.7614 35.3395H21.693L19.1119 57.6001H19.1134ZM51.003 13.5788C51.003 13.0226 50.7479 12.7437 50.2385 12.7437H49.25V29.1018H50.2377C50.7479 29.1018 51.0022 28.8351 51.0022 28.2988V13.5788H51.003ZM53.4084 31.2511C52.8665 31.786 51.9907 32.0534 50.7797 32.0534H46.0315V9.79286H50.7797C51.9907 9.79286 52.8665 10.0649 53.4084 10.6104C53.9504 11.1559 54.2214 12.0382 54.2214 13.2565V28.5891C54.2214 29.8294 53.9504 30.7171 53.4084 31.2511V31.2511ZM37.8841 32.0534V9.79286H44.6714V12.7437H41.1025V18.8062H44.4481V21.7571H41.1025V29.1018H44.7357V32.0534H37.8841V32.0534ZM33.2473 32.0534L32.0362 25.991C31.9915 25.7407 31.9544 25.4892 31.9249 25.2367C31.8931 24.97 31.8561 24.7186 31.8137 24.4831C31.7697 24.1961 31.7376 23.9073 31.7175 23.6176H31.654C31.6328 23.9171 31.601 24.2058 31.5586 24.4831C31.5154 24.7193 31.4837 24.9708 31.4632 25.2374C31.4413 25.5049 31.4102 25.7555 31.3671 25.991L30.2204 32.0534H26.9694L29.9971 20.2492L27.2888 9.79286H30.6662L31.5586 14.8923C31.601 15.1064 31.6381 15.3365 31.6699 15.5826C31.7016 15.8287 31.7281 16.0687 31.7493 16.3041L31.8137 17.0736H31.8773C31.8773 16.8169 31.8984 16.5609 31.9408 16.3041C31.962 16.0687 31.9885 15.8287 32.0203 15.5826C32.0529 15.3365 32.0892 15.1064 32.1323 14.8923L32.9286 9.79286H36.2431L33.5652 20.3772L36.6564 32.0534H33.2473V32.0534ZM22.8473 13.4508C22.8473 13.1079 22.7617 12.8717 22.5914 12.7437C22.4219 12.6157 22.1774 12.551 21.8587 12.551C21.5408 12.551 21.2956 12.6157 21.126 12.7437C20.9557 12.8725 20.871 13.1079 20.871 13.4508V28.4275C20.871 28.7704 20.9557 29.0005 21.126 29.1186C21.2956 29.2359 21.5401 29.2946 21.8587 29.2946C22.1774 29.2946 22.4219 29.2359 22.5914 29.1186C22.7617 29.0005 22.8465 28.7704 22.8465 28.4275V13.4508H22.8473ZM25.1884 31.4599C24.6041 31.9841 23.7177 32.2462 22.5278 32.2462H21.2214C20.0103 32.2462 19.1126 31.9788 18.5291 31.4439C17.9447 30.9098 17.6526 30.0115 17.6526 28.7498V13.1277C17.6526 11.8447 17.9447 10.9357 18.5291 10.4009C19.1126 9.86829 20.0111 9.6001 21.2214 9.6001H22.4961C23.7071 9.6001 24.6041 9.86753 25.1884 10.4016C25.7727 10.9365 26.0649 11.8454 26.0649 13.1285V28.7498C26.0649 30.0329 25.7727 30.9365 25.1884 31.4599V31.4599ZM13.217 22.6904C13.217 22.154 12.962 21.8851 12.4526 21.8851H11.5284V29.1026H12.4518C12.962 29.1026 13.217 28.8344 13.217 28.2972V22.6896V22.6904ZM13.0906 13.578C13.0906 13.0218 12.8356 12.7437 12.3262 12.7437H11.5276V19.0302H12.3239C12.834 19.0302 13.0884 18.7635 13.0884 18.2287V13.5772L13.0906 13.578ZM15.568 31.2671C15.0306 31.7913 14.1443 32.0534 12.9059 32.0534H8.31678V9.79286H12.6509C13.865 9.79286 14.7407 10.055 15.2774 10.5784C15.8133 11.1026 16.082 11.9734 16.082 13.1925V17.5239C16.082 18.2721 15.9207 18.9136 15.5991 19.4485C15.2774 19.9833 14.7089 20.282 13.893 20.346V20.4748C14.8376 20.5174 15.4863 20.7948 15.8405 21.3083C16.1947 21.8218 16.3719 22.5174 16.3719 23.3936V28.6538C16.3719 29.8729 16.1032 30.7445 15.5673 31.2679L15.568 31.2671Z" fill="#736F87"/>
</svg>
