<svg width="73" height="46" viewBox="0 0 73 46" fill="none" xmlns="http://www.w3.org/2000/svg">
<path fill-rule="evenodd" clip-rule="evenodd" d="M56.5741 37.998C56.5741 36.2555 53.4905 25.2885 53.4905 25.2885C53.4905 25.2885 50.4064 36.2555 50.4064 37.998C50.4064 38.8349 50.7313 39.6376 51.3097 40.2293C51.8881 40.8211 52.6726 41.1536 53.4905 41.1536C54.3085 41.1536 55.093 40.8211 55.6714 40.2293C56.2497 39.6376 56.5747 38.8349 56.5747 37.998H56.5741ZM47.0706 27.9622C47.0706 27.5652 46.8912 27.3664 46.533 27.3664H45.9279V31.6073H46.533C46.8912 31.6073 47.0706 31.4091 47.0706 31.0116V27.9622ZM47.4106 41.1672C47.2595 40.9075 47.1504 40.5448 47.0828 40.0781C47.0152 39.612 46.9737 39.0353 46.9588 38.3476C46.9445 37.6943 46.937 37.0408 46.9364 36.3873C46.9364 35.7992 46.921 35.2377 46.8912 34.7025C46.8614 34 46.6448 33.6477 46.2419 33.6477H45.9279V41.1672H43.665V25.2575H46.9141C47.7731 25.2575 48.384 25.4448 48.7459 25.8189C49.1078 26.1935 49.2888 26.8165 49.2888 27.6872V30.6222C49.2888 31.218 49.1791 31.7146 48.9604 32.1121C48.7417 32.5096 48.3228 32.7465 47.7044 32.8227V32.9142C47.9428 32.9452 48.1376 33.0253 48.2866 33.1549C48.4357 33.285 48.5591 33.4527 48.6565 33.6591C48.7534 33.8661 48.8247 34.0986 48.8694 34.3583C48.9141 34.6186 48.9439 34.8936 48.9588 35.1838C48.9737 35.4588 48.9886 35.761 49.0041 36.0894C49.0184 36.4183 49.0296 36.7467 49.0376 37.075C49.045 37.4039 49.0562 37.7132 49.0711 38.0034C49.0855 38.2942 49.0935 38.5464 49.0935 38.7604C49.1084 39.2189 49.1531 39.6469 49.2281 40.0438C49.3026 40.4413 49.4144 40.7855 49.5639 41.0757V41.1672H47.4106ZM37.9363 41.1672V25.2575H42.7086V27.3664H40.1992V31.6993H42.5516V33.8083H40.1992V39.0577H42.7538V41.1672H37.9363ZM35.5946 27.3664V41.1672H33.3322V27.3664H31.8308V25.2575H37.096V27.3664H35.5951H35.5946ZM28.876 30.2547H28.7866L28.4279 35.0232H29.2571L28.876 30.2547ZM29.7276 41.1672L29.3018 37.2013H28.3385L27.9128 41.1672H25.7839L27.5987 25.2575H30.1533L31.9676 41.1672H29.727H29.7276ZM24.2049 41.1672H22.1655L21.3592 34.3817C21.3283 34.13 21.302 33.8776 21.2804 33.6248C21.2597 33.3881 21.2411 33.1512 21.2245 32.9142C21.2105 32.6696 21.1956 32.4251 21.1798 32.1807H21.1351C21.1202 32.41 21.1048 32.6545 21.0904 32.9142C21.075 33.1282 21.0563 33.3651 21.034 33.6248C21.0116 33.8851 20.9856 34.1367 20.9558 34.3817L20.1037 41.1672H18.0425L16.25 25.2575H18.4682L19.208 33.9227C19.2224 34.1372 19.2373 34.3817 19.2522 34.6567C19.2671 34.9317 19.282 35.1991 19.2974 35.4588L19.3421 36.353H19.3868L19.4315 35.4588L19.4762 34.6567C19.4911 34.3817 19.5135 34.1372 19.5438 33.9227L20.2836 25.2575H22.1649L22.9047 33.9227C22.9191 34.1519 22.9345 34.4046 22.9494 34.6796C22.9638 34.9546 22.9792 35.2143 22.9941 35.4588C23.009 35.7338 23.0239 36.0246 23.0388 36.3301H23.0835C23.11 35.7797 23.14 35.2295 23.1735 34.6796C23.1884 34.4046 23.2107 34.1519 23.2405 33.9227L23.9574 25.2575H26.0186L24.2038 41.1672H24.2049ZM46.6272 9.7049C46.6272 9.30739 46.4479 9.10809 46.0897 9.10809H45.3946V20.7993H46.0892C46.4479 20.7993 46.6267 20.6087 46.6267 20.2254V9.7049H46.6272ZM48.3186 22.3355C47.9375 22.7177 47.3218 22.9089 46.4702 22.9089H43.1317V6.9991H46.4702C47.3218 6.9991 47.9375 7.1935 48.3186 7.58339C48.6996 7.97327 48.8902 8.60385 48.8902 9.47457V20.4328C48.8902 21.3194 48.6996 21.9537 48.3186 22.3355ZM37.403 22.9089V6.9991H42.1753V9.10809H39.666V13.441H42.0183V15.55H39.666V20.7993H42.2206V22.9089H37.403ZM34.1427 22.9089L33.2912 18.576C33.2598 18.3971 33.2337 18.2174 33.213 18.0369C33.1906 17.8463 33.1646 17.6666 33.1348 17.4983C33.1038 17.2932 33.0813 17.0868 33.0672 16.8797H33.0225C33.0076 17.0937 32.9852 17.3001 32.9554 17.4983C32.9251 17.6671 32.9027 17.8468 32.8883 18.0374C32.8729 18.2286 32.8511 18.4077 32.8207 18.576L32.0145 22.9089H29.7286L31.8575 14.4723L29.9532 6.9991H32.3279L32.9554 10.6437C32.9852 10.7967 33.0113 10.9612 33.0336 11.137C33.056 11.3129 33.0746 11.4845 33.0895 11.6527L33.1348 12.2027H33.1795C33.1795 12.0192 33.1944 11.8362 33.2242 11.6527C33.2391 11.4845 33.2577 11.3129 33.28 11.137C33.3029 10.9612 33.3285 10.7967 33.3588 10.6437L33.9187 6.9991H36.2492L34.3663 14.5638L36.5398 22.9089H34.1427ZM26.8302 9.61342C26.8302 9.36838 26.7701 9.19957 26.6504 9.10809C26.5311 9.01661 26.3592 8.97032 26.1352 8.97032C25.9117 8.97032 25.7392 9.01661 25.62 9.10809C25.5003 9.20012 25.4407 9.36838 25.4407 9.61342V20.3174C25.4407 20.5624 25.5003 20.7269 25.62 20.8113C25.7392 20.8952 25.9111 20.9371 26.1352 20.9371C26.3592 20.9371 26.5311 20.8952 26.6504 20.8113C26.7701 20.7269 26.8297 20.5624 26.8297 20.3174V9.61342H26.8302ZM28.4764 22.4847C28.0655 22.8593 27.4423 23.0466 26.6057 23.0466H25.6871C24.8355 23.0466 24.2043 22.8555 23.794 22.4732C23.3832 22.0915 23.1777 21.4495 23.1777 20.5477V9.38254C23.1777 8.46554 23.3832 7.8159 23.794 7.43364C24.2043 7.05301 24.8361 6.86133 25.6871 6.86133H26.5833C27.4348 6.86133 28.0655 7.05246 28.4764 7.43418C28.8872 7.81645 29.0927 8.46608 29.0927 9.38308V20.5477C29.0927 21.4647 28.8872 22.1106 28.4764 22.4847ZM20.059 16.217C20.059 15.8337 19.8796 15.6415 19.5215 15.6415H18.8716V20.7999H19.5209C19.8796 20.7999 20.059 20.6082 20.059 20.2243V16.2165V16.217ZM19.9701 9.70436C19.9701 9.30685 19.7908 9.10809 19.4326 9.10809H18.8711V13.6011H19.431C19.7897 13.6011 19.9685 13.4105 19.9685 13.0282V9.70382L19.9701 9.70436ZM21.712 22.3469C21.3342 22.7215 20.7109 22.9089 19.8403 22.9089H16.6135V6.9991H19.6609C20.5146 6.9991 21.1303 7.18642 21.5077 7.56051C21.8845 7.93516 22.0734 8.55756 22.0734 9.42882V12.5245C22.0734 13.0593 21.96 13.5178 21.7338 13.9C21.5077 14.2823 21.108 14.4957 20.5343 14.5415V14.6335C21.1984 14.664 21.6545 14.8622 21.9036 15.2292C22.1527 15.5963 22.2772 16.0934 22.2772 16.7196V20.4791C22.2772 21.3504 22.0883 21.9733 21.7115 22.3474L21.712 22.3469Z" fill="#A09DAF"/>
</svg>
