<svg width="32" height="33" viewBox="0 0 32 33" fill="none" xmlns="http://www.w3.org/2000/svg">
<path d="M26.0002 18.2141L16.0002 28.1181L6.00024 18.2141C5.34065 17.5722 4.8211 16.8008 4.4743 15.9483C4.12751 15.0958 3.96099 14.1807 3.98522 13.2607C4.00946 12.3406 4.22392 11.4356 4.61512 10.6025C5.00631 9.76946 5.56575 9.02641 6.25822 8.42018C6.95069 7.81395 7.76118 7.35766 8.63865 7.08005C9.51613 6.80244 10.4416 6.70952 11.3567 6.80714C12.2719 6.90477 13.1569 7.19082 13.9561 7.64728C14.7552 8.10375 15.4512 8.72074 16.0002 9.45941C16.5516 8.7261 17.2484 8.1145 18.047 7.66288C18.8457 7.21126 19.7289 6.92934 20.6415 6.83477C21.5541 6.74019 22.4763 6.835 23.3506 7.11326C24.2249 7.39152 25.0323 7.84724 25.7223 8.45189C26.4123 9.05655 26.9701 9.79712 27.3608 10.6273C27.7515 11.4574 27.9666 12.3593 27.9927 13.2764C28.0187 14.1935 27.8553 15.1061 27.5124 15.9571C27.1696 16.8081 26.6548 17.5792 26.0002 18.2221" stroke="url(#paint0_radial_6382_5613)" stroke-width="2" stroke-linecap="round" stroke-linejoin="round"/>
<defs>
<radialGradient id="paint0_radial_6382_5613" cx="0" cy="0" r="1" gradientUnits="userSpaceOnUse" gradientTransform="translate(25.0573 6.76953) rotate(-180) scale(21.0744 40.4707)">
<stop stop-color="#E681BF"/>
<stop offset="0.6875" stop-color="#544BFD"/>
<stop offset="0.817708" stop-color="#5249FE"/>
<stop offset="1" stop-color="#352BFD"/>
</radialGradient>
</defs>
</svg>
