<svg width="107" height="64" viewBox="0 0 107 64" fill="none" xmlns="http://www.w3.org/2000/svg">
<path d="M34.7689 26.4958C34.7689 26.4958 30.8559 26.3686 29.2775 22.8458C29.2775 22.8458 25.6156 26.9374 19.9329 28.3858L20.3147 29.392V42.4222L19.2378 43.4928C19.2378 43.4928 14.9465 40.3436 14.5675 36.5687C14.1891 32.7904 14.947 29.8926 19.1779 26.2455C19.1779 26.2455 20.4381 25.0451 22.5842 24.2934V23.8518C15.7646 23.8518 7.87158 30.0156 7.87158 37.1966C7.87158 44.3103 13.287 48.5226 20.4381 48.5226C20.4381 48.5226 24.9853 48.5693 28.3549 46.7214V48.4987C28.3549 48.6368 28.0767 48.6097 28.0767 48.6097C27.1005 48.6097 26.3125 49.2549 26.3125 50.0498C26.3125 50.8454 27.1008 51.491 28.0767 51.491C29.0523 51.491 29.8395 50.8454 29.8395 50.0498V46.0353C29.8433 46.0353 30.7952 45.3171 31.1075 45.0633C31.422 44.8123 31.1675 44.3103 30.796 44.435C30.4136 44.5622 29.8438 44.8123 29.8438 44.8123V28.1336C29.8441 28.1336 33.1291 28.4445 34.7689 26.4958V26.4958ZM28.3312 45.1901C22.6479 45.8185 21.1329 44.5622 21.1329 44.5622L25.8059 40.5968V26.9977C25.8059 26.3688 28.3312 27.9397 28.3312 27.9397V45.1901Z" fill="#736F87"/>
<path d="M42.0283 41.0976V32.7898C42.0283 32.4726 42.658 31.7831 42.658 31.7831C40.3243 31.5333 36.5993 29.7076 36.5993 29.7076C34.5174 31.4656 31.1673 31.6558 31.1673 31.6558C31.1073 32.0342 31.6744 32.7229 31.6744 32.7229V40.9098C31.6744 40.9098 31.4223 41.1606 30.856 41.9158C30.2865 42.6709 30.6015 42.6709 30.6015 42.6709C35.2753 43.1696 37.1658 45.122 37.1658 45.122C39.2519 42.7952 42.7854 42.2901 42.7854 42.2901C42.2194 42.0404 42.0283 41.0976 42.0283 41.0976V41.0976ZM38.2393 41.726C35.7145 41.2204 35.2124 40.6598 35.2124 40.6598V32.1585C35.2124 31.9709 38.2393 33.2274 38.2393 33.2274V41.726ZM66.2697 41.0976V32.7898C66.2697 32.4726 66.9026 31.7831 66.9026 31.7831C64.5671 31.5333 60.8409 29.7076 60.8409 29.7076C58.7588 31.4656 55.413 31.6558 55.413 31.6558C55.349 32.0342 55.9182 32.7229 55.9182 32.7229V40.9098C55.9182 40.9098 55.6677 41.1606 55.0969 41.9158C54.5306 42.6709 54.8427 42.6709 54.8427 42.6709C59.5194 43.1696 61.4112 45.122 61.4112 45.122C63.4939 42.7952 67.03 42.2901 67.03 42.2901C66.4634 42.0404 66.2697 41.0976 66.2697 41.0976V41.0976ZM62.4849 41.726C59.9591 41.2204 59.4533 40.6598 59.4533 40.6598V32.1585C59.4533 31.9709 62.4849 33.2274 62.4849 33.2274V41.726ZM81.4447 41.857C81.4415 41.857 81.4311 41.857 81.4244 41.8531C81.4244 41.8531 81.284 42.0608 81.4447 41.857Z" fill="#736F87"/>
<path d="M93.4816 41.6671C92.5963 41.539 92.2168 40.4669 92.2168 40.4669V32.4736V30.8396C89.5018 29.9595 86.8488 29.0142 86.8488 29.0142C84.3243 30.5218 81.6117 31.3401 81.6117 31.3401C81.5483 31.7185 82.1146 32.4104 82.1146 32.4104V40.9722C82.1146 40.9722 82.3056 40.7209 81.7351 41.4736C81.592 41.6676 81.5008 41.7848 81.4435 41.8581C84.1527 42.1886 87.1399 45.1239 87.1399 45.1239L89.3134 42.7971L91.7707 45.1239L94.6771 41.8539L93.4816 41.6671ZM88.4318 41.4157C87.2926 40.5338 85.7165 39.7707 85.7165 39.7707V31.5344C84.9378 31.0628 88.4318 32.598 88.4318 32.598V41.4157ZM43.4502 31.9085L46.638 29.4552C46.638 29.4552 48.661 30.6483 48.9728 31.1496C48.9754 31.1496 49.2907 31.4076 51.8762 29.7095L52.3221 29.3925C52.3221 29.3925 53.9613 30.8959 55.35 31.2769C55.35 31.2769 55.0344 34.0488 50.1091 32.7247C50.1091 32.7247 49.0389 32.5377 49.0389 33.0423V41.9174H50.4276C50.4276 41.9174 48.2788 43.1712 47.5204 44.3114C46.7667 45.4406 46.8198 45.1236 46.8198 45.1236C46.8224 45.1236 46.5746 43.7425 43.859 42.1687L43.7982 41.9811H45.062V33.5434C45.062 33.5436 44.5218 31.9717 43.4502 31.9085V31.9085ZM79.7817 31.5341C78.4471 30.9961 76.2445 29.2637 76.2445 29.2637L75.8053 29.5783C73.2136 31.2764 72.4549 31.3401 72.4549 31.3401C72.1431 30.8388 70.0581 29.642 70.0581 29.642L67.2188 31.7844C68.2936 31.8415 68.7347 33.6106 68.7347 33.6106V42.0412H67.4699L67.5338 42.232C70.2492 43.8063 70.5586 45.1234 70.5586 45.1234C70.5586 45.1234 70.4384 45.5017 71.1957 44.3709C71.9566 43.2411 74.1027 41.9814 74.1027 41.9814H72.7102V33.1023L74.354 31.8415L75.6145 32.9147V41.9176H74.8566C74.8566 41.9176 77.6729 44.563 77.7968 45.1239C77.7968 45.1239 80.4119 42.1081 80.7304 42.1081H79.4667V32.725C79.4675 32.7247 80.0967 31.6571 79.7817 31.5341V31.5341Z" fill="#736F87"/>
<path d="M38.7457 24.0223H68.0004V21.5889H38.7457V24.0223ZM40.8915 23.6917C40.4486 23.6917 40.0904 23.3266 40.0904 22.885C40.0904 22.4472 40.4486 22.0794 40.8915 22.0794C41.3371 22.0794 41.6993 22.4472 41.6993 22.885C41.6988 23.0986 41.6135 23.3033 41.4622 23.4544C41.3109 23.6056 41.1057 23.6909 40.8915 23.6917ZM47.0806 23.6917C46.6377 23.6917 46.2758 23.3266 46.2758 22.885C46.2758 22.4472 46.6374 22.0794 47.0806 22.0794C47.5238 22.0794 47.8822 22.4472 47.8822 22.885C47.8822 23.3266 47.5235 23.6917 47.0806 23.6917ZM53.3507 23.6917C52.908 23.6917 52.5458 23.3266 52.5458 22.885C52.5458 22.4472 52.9083 22.0794 53.3507 22.0794C53.7936 22.0794 54.1563 22.4472 54.1563 22.885C54.1565 23.3266 53.7936 23.6917 53.3507 23.6917ZM59.5376 23.6917C59.0944 23.6917 58.7365 23.3266 58.7365 22.885C58.7365 22.4472 59.0944 22.0794 59.5376 22.0794C59.9829 22.0794 60.3419 22.4472 60.3419 22.885C60.3419 23.3266 59.9829 23.6917 59.5376 23.6917ZM65.8503 23.6917C65.4074 23.6917 65.046 23.3266 65.046 22.885C65.046 22.4472 65.4074 22.0794 65.8503 22.0794C66.2959 22.0794 66.6546 22.4472 66.6546 22.885C66.6543 23.3266 66.2964 23.6917 65.8503 23.6917ZM38.7457 21.2874H68.0601C68.0601 21.2874 68.0732 20.4956 68.0705 19.6634H38.7454V21.2874H38.7457ZM38.7457 19.382H68.0676C68.0676 19.1915 68.0633 19.0079 68.0604 18.837C68.0401 17.8079 68.8817 17.2226 69.3648 17.0555C69.8509 16.8846 70.8164 16.1927 70.8164 16.1927C73.3002 14.2201 72.2686 12.5188 72.2686 12.5188C72.2686 12.5188 71.4265 14.4112 68.5638 14.1162C68.5638 14.1162 68.3562 15.2896 67.008 15.584C67.008 15.584 67.7128 16.3293 67.4906 17.1485C67.4906 17.1485 67.461 17.9344 66.3241 17.7734C66.3241 17.7734 65.7885 17.3063 66.5755 16.4868L65.4719 15.6071L64.403 16.4204C64.403 16.4204 65.1233 16.8014 64.7481 17.7439C64.7481 17.7439 64.3545 18.1007 64.2119 18.1209C64.0608 18.1443 62.6721 17.5127 64.1482 15.9823L62.485 14.5743L60.7781 15.9823C60.7781 15.9823 62.1263 17.3291 61.01 18.0441C61.01 18.0441 59.8124 18.8559 59.6852 17.4088C59.6852 17.4088 59.5376 16.9478 60.1284 16.7204L58.4652 15.6475L56.8857 16.7605C56.8857 16.7605 57.3683 17.0943 57.3518 17.3855C57.3321 17.6831 57.4557 18.1879 56.4239 18.3114C56.4239 18.3114 55.3094 18.2057 55.6252 17.0549C55.941 15.898 57.0973 15.7548 57.4962 15.648C57.4962 15.648 56.4239 13.8425 53.4154 13.2978H53.3922C50.3846 13.8423 49.3117 15.648 49.3117 15.648C49.7109 15.7554 50.8675 15.898 51.183 17.0549C51.5001 18.2054 50.3832 18.3114 50.3832 18.3114C49.3506 18.1887 49.4782 17.6836 49.4574 17.3855C49.4345 17.0945 49.9203 16.7608 49.9203 16.7608L48.3414 15.6475L46.6779 16.7204C47.2685 16.9476 47.1203 17.4088 47.1203 17.4088C46.9964 18.8559 45.7961 18.0441 45.7961 18.0441C44.6792 17.3291 46.0271 15.9825 46.0271 15.9825L44.3216 14.5743L42.6584 15.9825C44.1334 17.5127 42.7458 18.1451 42.5984 18.1209C42.45 18.1007 42.0614 17.7439 42.0614 17.7439C41.6819 16.8012 42.4068 16.4204 42.4068 16.4204L41.3344 15.6071L40.2311 16.4868C41.0218 17.3063 40.4819 17.7734 40.4819 17.7734C39.3458 17.9344 39.3157 17.1485 39.3157 17.1485C39.094 16.3293 39.7986 15.584 39.7986 15.584C38.4539 15.2896 38.2388 14.1162 38.2388 14.1162C35.3791 14.4109 34.5377 12.5188 34.5377 12.5188C34.5377 12.5188 33.5048 14.2196 35.9931 16.1927C35.9931 16.1927 36.9588 16.8846 37.4444 17.0555C37.927 17.2218 38.7691 17.8079 38.7457 18.8373V19.382Z" fill="#736F87"/>
<path d="M68.1039 19.6627V19.3813H68.0674C68.0706 19.4754 68.0706 19.565 68.0706 19.6627H68.1039Z" fill="#736F87"/>
<path d="M53.4139 12.712C54.5049 12.712 55.48 13.0572 56.1132 13.6021L56.1607 13.655C56.5436 14.0267 56.7438 14.0031 57.2176 14.0031C57.7466 14.0031 58.1764 13.5654 58.1764 13.0239C58.1764 12.4854 58.1658 12.0469 57.422 11.359L57.0124 10.9783L57.6437 10.4123C60.6743 11.7068 61.0524 13.7182 61.0524 13.7182H63.0714C63.0714 13.0537 62.0624 11.228 62.0624 11.228C65.9445 12.1779 67.2087 14.5951 67.2087 14.5951C68.4069 12.4622 70.4919 12.8696 70.4919 12.8696L70.8408 11.8299C70.8408 11.8299 69.5525 11.7661 68.587 12.0174C68.587 12.0174 69.1341 11.3484 67.747 11.1775C67.747 11.1775 67.8742 10.2122 66.0639 10.2122C66.0639 10.2122 66.1441 9.57986 65.0109 9.16483C63.8738 8.74395 63.4959 9.16483 63.4959 9.16483C63.4959 9.16483 63.2446 8.49286 62.2319 8.28242C61.2249 8.07224 60.8827 8.49286 60.8827 8.49286C60.8827 8.49286 60.6759 7.82142 59.203 7.65057C57.7279 7.48769 57.4766 7.94816 57.4766 7.94816C57.4766 7.94816 57.2256 7.44651 56.5519 7.40054C55.8774 7.35696 55.5818 7.74144 55.5818 7.74144C55.5818 7.74144 55.1632 7.14945 54.6166 7.60806C54.6166 7.60806 54.0668 7.69786 53.8592 7.2366C53.8592 7.2366 53.9426 6.77188 54.3187 6.68499C54.7 6.60422 54.9921 6.60422 54.9921 6.60422C54.9921 6.60422 54.9526 5.89213 53.9029 5.63864C53.9029 5.63864 54.2981 4.9959 53.4158 4.32446H53.3324C52.45 4.9959 52.846 5.63864 52.846 5.63864C51.7939 5.89239 51.7526 6.60422 51.7526 6.60422C51.7526 6.60422 52.0481 6.60422 52.426 6.68499C52.8055 6.77215 52.8889 7.2366 52.8889 7.2366C52.6778 7.69786 52.1313 7.60806 52.1313 7.60806C51.585 7.14945 51.1618 7.74144 51.1618 7.74144C51.1618 7.74144 50.867 7.35696 50.196 7.40054C49.5223 7.44651 49.2675 7.94816 49.2675 7.94816C49.2675 7.94816 49.0167 7.48769 47.5438 7.65057C46.0693 7.82142 45.8612 8.49286 45.8612 8.49286C45.8612 8.49286 45.5227 8.07198 44.5135 8.28242C43.504 8.49286 43.249 9.16483 43.249 9.16483C43.249 9.16483 42.8695 8.74395 41.7332 9.16483C40.5961 9.57959 40.6837 10.2122 40.6837 10.2122C38.8729 10.2122 38.9979 11.1775 38.9979 11.1775C37.6092 11.3484 38.1598 12.0174 38.1598 12.0174C37.1897 11.7664 35.9058 11.8299 35.9058 11.8299L36.2511 12.8696C36.2511 12.8696 38.3373 12.462 39.5373 14.5951C39.5373 14.5951 40.8013 12.1777 44.6801 11.228C44.6801 11.228 43.6711 13.0534 43.6711 13.7182H45.6898C45.6898 13.7182 46.0693 11.7066 49.0996 10.4123L49.7296 10.9783L49.3211 11.359C48.5797 12.0469 48.5661 12.4854 48.5661 13.0239C48.5661 13.5649 48.9957 14.0031 49.5252 14.0031C49.9972 14.0031 50.1987 14.0267 50.5851 13.655L50.6288 13.6021C51.2617 13.0572 52.2379 12.712 53.3313 12.712H53.4139Z" fill="#736F87"/>
<path d="M71.5201 58.3966C71.198 58.4838 70.8358 58.5797 70.5879 58.3695C70.2631 58.0876 70.4166 55.1338 70.3771 54.3611C70.3673 54.14 70.4646 53.9963 70.3771 53.5558C70.3771 53.5443 68.5128 53.0408 67.2624 51.8204C66.5274 52.616 65.2413 53.522 63.6948 53.9429C63.9536 54.0633 64.0634 54.2641 64.1137 54.4177V57.8615C64.0634 58.0983 63.9709 58.2019 63.7558 58.3358C64.2214 58.4588 65.4718 58.7904 66.7534 59.5626C66.8767 59.6362 67.903 58.7904 68.3992 58.6626C68.6604 59.0341 69.5121 59.9008 70.347 59.5317C70.6322 59.4093 71.2225 58.7434 71.5207 58.5202C71.5129 58.5175 71.5201 58.4102 71.5201 58.3966V58.3966ZM66.2699 57.2299C66.2699 57.2299 66.2558 53.7295 66.2699 53.6724C66.2558 53.6724 68.1167 54.659 68.1167 54.659L68.1309 57.9519L66.2699 57.2299ZM61.622 52.1183C62.4604 52.9444 62.8729 53.0509 63.7556 53.4697C63.537 54.4257 61.7267 54.6903 60.5768 54.1252C60.3825 54.0316 59.9466 54.295 59.9466 54.295L59.9364 58.1836L60.4859 58.1897L58.7164 59.5333L57.1566 58.1897L57.7869 58.1836V53.9681C57.4556 53.5401 56.9288 53.6541 56.331 53.9012L57.9942 52.3293C58.6053 51.8082 59.5468 53.3926 59.9767 53.349C60.1542 53.3262 60.9622 52.5769 61.146 52.4169C61.2468 52.3285 61.5919 52.092 61.622 52.1183ZM44.6271 52.0354C46.0449 51.8308 46.5811 53.4891 47.3531 54.0338C48.0737 53.4521 48.3429 52.299 49.452 52.1183C49.8075 52.0649 50.2635 52.2456 50.4109 52.4759C50.7264 52.9747 50.3879 53.5871 49.8712 53.1054C49.7611 53.0052 49.6604 52.9181 49.4523 52.9871C49.2303 53.0578 47.9199 54.6157 47.9532 54.8434L47.9836 54.8662C48.131 55.1667 50.2971 57.777 50.4418 57.8881C50.4455 57.8913 50.5017 57.9513 50.5017 57.9513C51.0254 58.0613 51.1051 57.3899 51.6727 57.4667C51.763 58.1283 50.6331 59.3418 50.1433 59.5315C48.1083 60.3347 47.3803 57.5528 46.3068 56.8707C46.0824 57.0014 45.1676 58.1381 44.8957 58.5194C44.6714 58.8335 44.4896 59.1988 44.1445 59.3814C43.7392 59.5958 43.2627 59.231 43.0649 58.9637C42.8437 58.66 42.3211 57.3559 43.3666 57.8873C43.5412 57.9813 43.8196 58.1525 44.0576 58.0674C44.2327 58.0082 45.7344 56.2994 45.7645 56.153C45.7752 56.0826 45.7647 56.0106 45.7344 55.946C45.5961 55.632 44.4504 54.1608 44.0576 53.8494L44.0272 53.827C43.5614 53.6828 43.4076 54.3308 42.7971 54.1536C42.8134 53.7795 42.9511 53.5858 43.0985 53.3477C43.2427 53.1049 43.6518 52.4961 43.6949 52.4494C43.8825 52.2522 44.302 52.0721 44.6271 52.0354V52.0354Z" fill="#736F87"/>
<path d="M54.6383 50.2973C54.6852 50.3409 54.7683 50.3284 54.7857 50.3882L54.7787 52.1865H56.2341V52.8664C56.2341 52.8664 55.1436 52.7918 54.8763 52.9629L54.7089 53.0434V57.4488C54.7116 57.4488 55.0969 57.753 55.2382 57.77C55.2792 57.7727 55.3189 57.7793 55.356 57.77C55.5734 57.7331 56.4081 57.1679 56.5291 57.6231C56.5696 57.7838 56.4928 57.91 56.4355 57.9836C56.2516 58.2177 53.7101 59.5649 53.7101 59.5649C53.7101 59.5649 52.2108 58.3038 52.0906 58.1906C51.9699 58.0764 52.5098 57.6228 52.5098 57.6228C52.5892 57.3125 52.5098 54.8313 52.5098 53.972C52.5098 53.7151 52.5831 53.324 52.5098 53.0795C52.5431 52.7593 51.527 52.8029 51.527 52.8029L51.5232 52.1865C51.685 52.0874 52.2342 52.1506 52.453 52.1195C52.4794 52.0058 52.4733 51.6219 52.5394 51.4922C52.6065 51.3641 54.3739 50.4214 54.6383 50.2973V50.2973ZM34.7287 46.921C35.0072 46.8774 35.4227 47.0549 35.6609 47.1022C36.3573 47.2428 37.136 47.2858 37.8499 47.3395C39.0902 47.4293 40.1874 47.3296 41.2667 47.1859C41.6248 47.1423 42.0875 46.9887 42.4059 47.0682C42.2346 47.4226 42.0342 47.6235 41.8063 47.9078C41.5819 48.1783 40.9349 49.0849 40.6361 49.1917C40.485 49.2411 40.3334 49.1917 40.1863 49.1917C39.5864 49.1983 38.7416 49.2316 38.117 49.2249C37.6183 49.214 37.011 49.1046 36.4975 49.2249C36.4007 50.0874 36.3368 51.0673 36.5321 51.8217C36.8738 51.739 37.0944 51.5581 37.3964 51.464C38.3294 51.1832 39.7564 52.0364 40.4277 51.5512C40.5047 51.4983 40.5887 51.3078 40.6958 51.2871C41.575 51.1199 40.3944 53.0997 40.0352 53.2602C39.4353 53.5275 38.4594 53.4371 37.7548 53.3168C37.5168 53.2764 37.0584 53.1491 36.7664 53.2602C36.2131 53.4637 36.4378 55.1725 36.4378 55.9167C36.4378 55.9095 36.4402 55.9887 36.4378 56.011C36.3975 56.446 36.4178 56.6192 36.26 56.873C36.1564 57.0348 36.1198 57.1573 36.0492 57.3478C36.5548 57.3478 36.9311 57.2107 37.3705 57.174C38.1846 57.1004 38.9116 57.3385 39.556 57.448C40.0392 57.5181 40.8736 57.6249 41.2357 57.3478C41.4948 57.1573 41.648 56.4391 41.9268 56.3052C42.0235 56.2616 42.1986 56.2775 42.2823 56.3052C42.44 56.3519 42.5767 56.4853 42.557 56.6955C42.533 56.8969 41.0553 59.4745 40.9378 59.5338V59.5649L40.8469 59.5914C40.7465 59.6318 40.5687 59.6318 40.4283 59.6278C39.0873 59.5282 37.6786 59.114 36.3773 58.9973C35.909 58.9604 35.4385 58.9604 34.9702 58.9973C34.6237 59.0239 33.34 59.4416 33.1114 59.293C32.7428 59.0632 33.3267 58.6325 33.4402 58.5515C33.5786 58.4415 33.8064 58.2177 33.8594 58.0365C33.9975 57.6095 33.8861 56.653 33.8594 56.2746C33.7491 54.614 33.8728 52.7588 33.8901 51.0166C33.8928 50.618 33.8131 50.1374 33.9498 49.793C34.0985 49.4085 34.6168 49.1811 34.8489 48.8314C33.9269 48.4831 33.2598 49.7707 32.7836 49.341C32.6152 49.1983 32.5995 49.0676 32.7532 48.8941C33.2598 48.3125 33.8525 47.7944 34.3724 47.2183C34.4468 47.1351 34.5976 46.9412 34.7287 46.921V46.921ZM97.8472 42.1308C97.9106 42.168 97.941 42.2313 97.941 42.3253C97.941 42.4114 97.9109 42.472 97.8437 42.506C97.8067 42.5222 97.7499 42.5291 97.6756 42.5291H97.3009V42.1075H97.682C97.7563 42.1075 97.8067 42.1136 97.8472 42.1308ZM96.9755 41.8287V43.411H97.3009V42.789H97.6423C97.739 42.789 97.8061 42.8095 97.8437 42.8421C97.877 42.8732 97.8973 42.9426 97.8973 43.0441V43.1939C97.8973 43.2407 97.9045 43.2843 97.9141 43.3236C97.9173 43.3512 97.9282 43.3805 97.9343 43.4107H98.2992V43.3714C98.2822 43.3618 98.2679 43.3481 98.2574 43.3317C98.247 43.3152 98.2407 43.2965 98.2392 43.2771C98.2331 43.2609 98.2288 43.2072 98.2288 43.1339V43.0268C98.2288 42.92 98.2157 42.8363 98.1862 42.7826C98.1499 42.7238 98.0938 42.6799 98.0279 42.6588C98.1179 42.6296 98.1819 42.5756 98.2189 42.506C98.2555 42.429 98.2757 42.3588 98.2757 42.2788C98.2757 42.2222 98.2626 42.1619 98.2424 42.1149C98.2216 42.0681 98.1987 42.0206 98.1627 41.9852C98.1218 41.935 98.07 41.8946 98.0113 41.867C97.927 41.8429 97.8398 41.8305 97.752 41.8301H96.9755V41.8287Z" fill="#736F87"/>
<path d="M97.5322 44.5344C97.7713 44.535 98.0082 44.4885 98.2292 44.3976C98.4503 44.3068 98.6512 44.1733 98.8204 44.0049C98.9896 43.8365 99.1239 43.6364 99.2154 43.4162C99.307 43.196 99.3541 42.9599 99.354 42.7215C99.354 42.2398 99.162 41.7778 98.8204 41.4372C98.4787 41.0965 98.0154 40.9052 97.5322 40.9052C97.049 40.9052 96.5857 41.0965 96.244 41.4372C95.9024 41.7778 95.7104 42.2398 95.7104 42.7215C95.7104 43.724 96.5265 44.5344 97.5322 44.5344ZM97.5322 44.2538C97.7343 44.2543 97.9345 44.215 98.1213 44.1382C98.3081 44.0614 98.4779 43.9486 98.621 43.8063C98.764 43.664 98.8775 43.495 98.955 43.3089C99.0324 43.1228 99.0723 42.9233 99.0723 42.7218C99.0728 42.5198 99.0333 42.3198 98.9562 42.1331C98.879 41.9464 98.7656 41.7767 98.6225 41.6338C98.4795 41.4909 98.3095 41.3775 98.1224 41.3002C97.9353 41.2229 97.7347 41.1832 97.5322 41.1833C97.3298 41.1835 97.1294 41.2235 96.9425 41.3009C96.7556 41.3783 96.5859 41.4917 96.4429 41.6346C96.3 41.7774 96.1867 41.947 96.1096 42.1336C96.0324 42.3201 95.9929 42.52 95.9932 42.7218C95.9933 42.9231 96.0332 43.1225 96.1106 43.3085C96.188 43.4945 96.3014 43.6634 96.4443 43.8057C96.5873 43.948 96.7569 44.0608 96.9436 44.1377C97.1302 44.2146 97.3302 44.254 97.5322 44.2538V44.2538Z" fill="#736F87"/>
</svg>
