<svg width="33" height="33" viewBox="0 0 33 33" fill="none" xmlns="http://www.w3.org/2000/svg">
<path fill-rule="evenodd" clip-rule="evenodd" d="M8.66683 5.45166C8.66683 4.89938 9.11454 4.45166 9.66683 4.45166H23.0002C23.5524 4.45166 24.0002 4.89938 24.0002 5.45166V8.85147C24.5002 8.59585 25.0667 8.45166 25.6668 8.45166C27.6919 8.45166 29.3335 10.0933 29.3335 12.1183C29.3335 14.1434 27.6919 15.785 25.6668 15.785C25.0667 15.785 24.5002 15.6408 24.0002 15.3852V16.1183C24.0002 18.1517 23.1924 20.1017 21.7546 21.5395C20.5546 22.7395 18.9978 23.5006 17.3335 23.7195V27.1183H21.6668C22.2191 27.1183 22.6668 27.566 22.6668 28.1183C22.6668 28.6706 22.2191 29.1183 21.6668 29.1183H16.3335H11.0002C10.4479 29.1183 10.0002 28.6706 10.0002 28.1183C10.0002 27.566 10.4479 27.1183 11.0002 27.1183H15.3335V23.7195C13.6692 23.5006 12.1124 22.7395 10.9123 21.5395C9.47457 20.1017 8.66683 18.1517 8.66683 16.1183V15.3852C8.16678 15.6408 7.60031 15.785 7.00016 15.785C4.97512 15.785 3.3335 14.1434 3.3335 12.1183C3.3335 10.0933 4.97512 8.45166 7.00016 8.45166C7.60031 8.45166 8.16678 8.59585 8.66683 8.85147V5.45166ZM22.0002 12.1183L22.0002 6.45166H10.6668V12.1183V16.1183C10.6668 17.6212 11.2639 19.0626 12.3266 20.1253C13.3893 21.188 14.8306 21.785 16.3335 21.785C17.8364 21.785 19.2777 21.188 20.3404 20.1253C21.4031 19.0626 22.0002 17.6212 22.0002 16.1183L22.0002 12.1183ZM24.0002 12.1183C24.0002 13.0388 24.7464 13.785 25.6668 13.785C26.5873 13.785 27.3335 13.0388 27.3335 12.1183C27.3335 11.1979 26.5873 10.4517 25.6668 10.4517C24.7464 10.4517 24.0002 11.1979 24.0002 12.1183ZM7.00016 10.4517C7.92064 10.4517 8.66683 11.1979 8.66683 12.1183C8.66683 13.0388 7.92064 13.785 7.00016 13.785C6.07969 13.785 5.3335 13.0388 5.3335 12.1183C5.3335 11.1979 6.07969 10.4517 7.00016 10.4517Z" fill="url(#paint0_radial_6382_10161)"/>
<defs>
<radialGradient id="paint0_radial_6382_10161" cx="0" cy="0" r="1" gradientUnits="userSpaceOnUse" gradientTransform="translate(26.1523 4.45166) rotate(-180) scale(22.8188 46.7609)">
<stop stop-color="#E681BF"/>
<stop offset="0.6875" stop-color="#544BFD"/>
<stop offset="0.817708" stop-color="#5249FE"/>
<stop offset="1" stop-color="#352BFD"/>
</radialGradient>
</defs>
</svg>
