<svg width="16" height="16" viewBox="0 0 16 16" fill="none" xmlns="http://www.w3.org/2000/svg">
<path fill-rule="evenodd" clip-rule="evenodd" d="M3.99984 1.91675C4.41405 1.91675 4.74984 2.25253 4.74984 2.66675V4.7225C5.52985 5.02359 6.08317 5.78055 6.08317 6.66675C6.08317 7.55295 5.52985 8.30991 4.74984 8.611V13.3334C4.74984 13.7476 4.41405 14.0834 3.99984 14.0834C3.58562 14.0834 3.24984 13.7476 3.24984 13.3334V8.611C2.46983 8.30991 1.9165 7.55295 1.9165 6.66675C1.9165 5.78055 2.46983 5.02359 3.24984 4.7225V2.66675C3.24984 2.25253 3.58562 1.91675 3.99984 1.91675ZM3.99984 6.08342C3.67767 6.08342 3.4165 6.34458 3.4165 6.66675C3.4165 6.98891 3.67767 7.25008 3.99984 7.25008C4.322 7.25008 4.58317 6.98891 4.58317 6.66675C4.58317 6.34458 4.322 6.08342 3.99984 6.08342ZM7.99984 10.0834C7.67767 10.0834 7.4165 10.3446 7.4165 10.6667C7.4165 10.9889 7.67767 11.2501 7.99984 11.2501C8.322 11.2501 8.58317 10.9889 8.58317 10.6667C8.58317 10.3446 8.322 10.0834 7.99984 10.0834ZM8.74984 8.7225V2.66675C8.74984 2.25253 8.41405 1.91675 7.99984 1.91675C7.58562 1.91675 7.24984 2.25253 7.24984 2.66675V8.7225C6.46983 9.02359 5.9165 9.78055 5.9165 10.6667C5.9165 11.5529 6.46983 12.3099 7.24984 12.611V13.3334C7.24984 13.7476 7.58562 14.0834 7.99984 14.0834C8.41405 14.0834 8.74984 13.7476 8.74984 13.3334V12.611C9.52985 12.3099 10.0832 11.5529 10.0832 10.6667C10.0832 9.78055 9.52985 9.02359 8.74984 8.7225ZM11.4165 4.66675C11.4165 4.34458 11.6777 4.08341 11.9998 4.08341C12.322 4.08341 12.5832 4.34458 12.5832 4.66675C12.5832 4.98891 12.322 5.25008 11.9998 5.25008C11.6777 5.25008 11.4165 4.98891 11.4165 4.66675ZM12.7498 6.611C13.5298 6.30991 14.0832 5.55295 14.0832 4.66675C14.0832 3.78055 13.5298 3.02359 12.7498 2.7225V2.66675C12.7498 2.25253 12.4141 1.91675 11.9998 1.91675C11.5856 1.91675 11.2498 2.25253 11.2498 2.66675V2.7225C10.4698 3.02359 9.9165 3.78055 9.9165 4.66675C9.9165 5.55295 10.4698 6.30991 11.2498 6.611V13.3334C11.2498 13.7476 11.5856 14.0834 11.9998 14.0834C12.4141 14.0834 12.7498 13.7476 12.7498 13.3334V6.611Z" fill="url(#paint0_radial_6382_25069)"/>
<defs>
<radialGradient id="paint0_radial_6382_25069" cx="0" cy="0" r="1" gradientUnits="userSpaceOnUse" gradientTransform="translate(12.5945 1.91675) rotate(-180) scale(10.678 23.0645)">
<stop stop-color="#E681BF"/>
<stop offset="0.6875" stop-color="#544BFD"/>
<stop offset="0.817708" stop-color="#5249FE"/>
<stop offset="1" stop-color="#352BFD"/>
</radialGradient>
</defs>
</svg>
