<svg width="33" height="33" viewBox="0 0 33 33" fill="none" xmlns="http://www.w3.org/2000/svg">
<path fill-rule="evenodd" clip-rule="evenodd" d="M24.4735 6.45166C24.1575 6.45166 24.0002 6.68002 24.0002 6.84314V26.7268C24.0002 26.89 24.1575 27.1183 24.4735 27.1183H26.8602C27.1762 27.1183 27.3335 26.89 27.3335 26.7268V6.84314C27.3335 6.68002 27.1762 6.45166 26.8602 6.45166H24.4735ZM22.0002 6.84314C22.0002 5.46928 23.1621 4.45166 24.4735 4.45166H26.8602C28.1715 4.45166 29.3335 5.46928 29.3335 6.84314V26.7268C29.3335 28.1007 28.1715 29.1183 26.8602 29.1183H24.4735C23.1621 29.1183 22.0002 28.1007 22.0002 26.7268V6.84314ZM15.1402 14.4517C14.7951 14.4517 14.6668 14.6887 14.6668 14.8022V26.7678C14.6668 26.8813 14.7951 27.1183 15.1402 27.1183H17.5268C17.8719 27.1183 18.0002 26.8813 18.0002 26.7678V14.8022C18.0002 14.6887 17.8719 14.4517 17.5268 14.4517H15.1402ZM12.6668 14.8022C12.6668 13.4239 13.8579 12.4517 15.1402 12.4517H17.5268C18.8091 12.4517 20.0002 13.4239 20.0002 14.8022V26.7678C20.0002 28.1461 18.8091 29.1183 17.5268 29.1183H15.1402C13.8579 29.1183 12.6668 28.1461 12.6668 26.7678V14.8022ZM5.3335 25.4517C5.3335 24.5312 6.07969 23.785 7.00016 23.785C7.92064 23.785 8.66683 24.5312 8.66683 25.4517C8.66683 26.3721 7.92064 27.1183 7.00016 27.1183C6.07969 27.1183 5.3335 26.3721 5.3335 25.4517ZM7.00016 21.785C4.97512 21.785 3.3335 23.4266 3.3335 25.4517C3.3335 27.4767 4.97512 29.1183 7.00016 29.1183C9.02521 29.1183 10.6668 27.4767 10.6668 25.4517C10.6668 23.4266 9.02521 21.785 7.00016 21.785Z" fill="url(#paint0_radial_6382_5590)"/>
<defs>
<radialGradient id="paint0_radial_6382_5590" cx="0" cy="0" r="1" gradientUnits="userSpaceOnUse" gradientTransform="translate(26.1523 4.45166) rotate(-180) scale(22.8188 46.7609)">
<stop stop-color="#E681BF"/>
<stop offset="0.6875" stop-color="#544BFD"/>
<stop offset="0.817708" stop-color="#5249FE"/>
<stop offset="1" stop-color="#352BFD"/>
</radialGradient>
</defs>
</svg>
