<svg width="103" height="64" viewBox="0 0 103 64" fill="none" xmlns="http://www.w3.org/2000/svg">
<g clip-path="url(#clip0_1751_30067)">
<path d="M-0.646973 49.9036H19.574V52.7899H-0.646973V49.9036Z" fill="#736F87"/>
<path d="M-0.646973 44.3672H19.574V47.2637H-0.646973V44.3672Z" fill="#736F87"/>
<path d="M5.12158 38.8412H13.795V41.7378H5.12158V38.8412Z" fill="#736F87"/>
<path d="M5.12158 33.3145H13.795V36.2111H5.12158V33.3145Z" fill="#736F87"/>
<path d="M5.12158 27.7885H13.795V30.6851H5.12158V27.7885Z" fill="#736F87"/>
<path d="M5.12158 22.2521H13.795V25.1487H5.12158V22.2521Z" fill="#736F87"/>
<path d="M19.574 16.7261H-0.646973V19.6227H19.574V16.7261Z" fill="#736F87"/>
<path d="M19.574 11.2001H-0.646973V14.0967H19.574V11.2001Z" fill="#736F87"/>
<path d="M22.4585 47.2638H53.5574C54.0827 46.3702 54.4742 45.3944 54.7112 44.3672H22.4585V47.2638Z" fill="#736F87"/>
<path d="M51.1366 33.3145H28.2373V36.2111H53.5574C52.898 35.1016 52.0842 34.1259 51.1366 33.3145Z" fill="#736F87"/>
<path d="M28.2373 27.7885V30.6851H51.1366C52.1049 29.8736 52.9186 28.8978 53.5574 27.7885H28.2373Z" fill="#736F87"/>
<path d="M53.5575 16.7261H22.4585V19.6227H54.7112C54.4434 18.5955 54.0519 17.6198 53.5575 16.7261Z" fill="#736F87"/>
<path d="M43.9981 11.2001H22.4585V14.0967H51.4251C49.4885 12.3094 46.8618 11.2001 43.9981 11.2001Z" fill="#736F87"/>
<path d="M36.9005 22.2521H28.2373V25.1487H36.9005V22.2521Z" fill="#736F87"/>
<path d="M45.5742 25.1487H54.6391C54.8966 24.2243 55.0306 23.2484 55.0306 22.2521H45.5742V25.1487Z" fill="#736F87"/>
<path d="M28.2373 38.8412H36.9005V41.7378H28.2373V38.8412Z" fill="#736F87"/>
<path d="M45.5742 38.8412V41.7378H55.0306C55.0306 40.7414 54.8966 39.7657 54.6391 38.8412H45.5742Z" fill="#736F87"/>
<path d="M22.4585 52.7694L43.9981 52.8002C46.8824 52.8002 49.4885 51.6909 51.4354 49.9036H22.4585V52.7694Z" fill="#736F87"/>
<path d="M57.1318 49.9036H71.5738V52.7899H57.1318V49.9036Z" fill="#736F87"/>
<path d="M57.1318 44.3672H71.5738V47.2637H57.1318V44.3672Z" fill="#736F87"/>
<path d="M62.9004 38.8412H71.5739V41.7378H62.9004V38.8412Z" fill="#736F87"/>
<path d="M62.9004 33.3145H71.5739V36.2111H62.9004V33.3145Z" fill="#736F87"/>
<path d="M75.5914 16.7261H57.1318V19.6227H76.5905L75.5914 16.7261Z" fill="#736F87"/>
<path d="M73.6753 11.2001H57.1318V14.0967H74.6745L73.6753 11.2001Z" fill="#736F87"/>
<path d="M88.9004 49.9036H103.353V52.7899H88.9004V49.9036Z" fill="#736F87"/>
<path d="M88.9004 44.3672H103.353V47.2637H88.9004V44.3672Z" fill="#736F87"/>
<path d="M88.9004 38.8412H97.5739V41.7378H88.9004V38.8412Z" fill="#736F87"/>
<path d="M88.9004 33.3145H97.5739V36.2111H88.9004V33.3145Z" fill="#736F87"/>
<path d="M88.9003 30.6851H97.5738V27.7885H88.9003H81.0509L80.2371 30.1305L79.4233 27.7885H71.5739H62.9004V30.6851H71.5739V28.0247L72.4907 30.6851H87.9836L88.9003 28.0247V30.6851Z" fill="#736F87"/>
<path d="M97.5739 22.2521H82.967L81.9678 25.1487H97.5739V22.2521Z" fill="#736F87"/>
<path d="M86.8093 11.2001L85.8101 14.0967H103.353V11.2001H86.8093Z" fill="#736F87"/>
<path d="M80.237 52.7694L81.2361 49.9036H79.2378L80.237 52.7694Z" fill="#736F87"/>
<path d="M78.3211 47.2637H82.1531L83.1832 44.3672H77.3013L78.3211 47.2637Z" fill="#736F87"/>
<path d="M76.3743 41.7378H84.1001L85.12 38.8412H75.3545L76.3743 41.7378Z" fill="#736F87"/>
<path d="M74.4377 36.2111H86.047L87.0359 33.3145H73.4385L74.4377 36.2111Z" fill="#736F87"/>
<path d="M62.9004 25.1487H78.5065L77.5074 22.2521H62.9004V25.1487Z" fill="#736F87"/>
<path d="M83.894 19.6227H103.353V16.7261H84.883L83.894 19.6227Z" fill="#736F87"/>
</g>
<defs>
<clipPath id="clip0_1751_30067">
<rect width="102.4" height="64" fill="white" transform="translate(0.152832 0.00012207)"/>
</clipPath>
</defs>
</svg>
