<svg width="16" height="16" viewBox="0 0 16 16" fill="none" xmlns="http://www.w3.org/2000/svg">
<g clip-path="url(#clip0_6382_25232)">
<path fill-rule="evenodd" clip-rule="evenodd" d="M7.5036 0.771183C7.78722 0.520608 8.2131 0.520608 8.49673 0.771183C10.0834 2.17297 12.1545 2.90298 14.2712 2.80626C14.6162 2.79049 14.9274 3.01236 15.0249 3.34367C15.3898 4.5832 15.5015 5.88335 15.3533 7.16684C15.205 8.45034 14.7999 9.69093 14.1621 10.8149C13.5243 11.9389 12.6667 12.9233 11.6405 13.7097C10.6142 14.496 9.44022 15.0683 8.18821 15.3926C8.06488 15.4246 7.93544 15.4246 7.81211 15.3926C6.5601 15.0683 5.38609 14.496 4.35985 13.7097C3.3336 12.9233 2.47605 11.9389 1.83822 10.8149C1.20038 9.69093 0.795294 8.45033 0.647061 7.16684C0.498829 5.88335 0.610486 4.5832 0.975384 3.34367C1.07292 3.01236 1.38409 2.79049 1.72909 2.80626C3.84581 2.90298 5.91691 2.17297 7.5036 0.771183ZM2.27398 4.31325C2.08028 5.19209 2.03362 6.09823 2.13716 6.99475C2.26229 8.07824 2.60426 9.1256 3.1428 10.0746C3.68133 11.0236 4.40546 11.8549 5.27219 12.519C6.08736 13.1437 7.01302 13.6084 8.00016 13.8894C8.9873 13.6084 9.91297 13.1437 10.7281 12.519C11.5949 11.8549 12.319 11.0236 12.8575 10.0746C13.3961 9.1256 13.738 8.07824 13.8632 6.99475C13.9667 6.09823 13.92 5.19209 13.7263 4.31325C11.6512 4.27634 9.64263 3.57192 8.00016 2.30536C6.35769 3.57192 4.34912 4.27634 2.27398 4.31325ZM8.75016 5.24992V4.99992C8.75016 4.5857 8.41438 4.24992 8.00016 4.24992C7.58595 4.24992 7.25016 4.5857 7.25016 4.99992V5.2519C6.81636 5.27257 6.40455 5.45399 6.09606 5.76248C5.76787 6.09067 5.5835 6.53579 5.5835 6.99992C5.5835 7.46405 5.76787 7.90917 6.09606 8.23736C6.42425 8.56554 6.86937 8.74992 7.3335 8.74992H8.66683C8.73313 8.74992 8.79672 8.77626 8.84361 8.82314C8.89049 8.87003 8.91683 8.93361 8.91683 8.99992C8.91683 9.06622 8.89049 9.12981 8.84361 9.1767C8.79672 9.22358 8.73313 9.24992 8.66683 9.24992H8.00016H6.3335C5.91928 9.24992 5.5835 9.58571 5.5835 9.99992C5.5835 10.4141 5.91928 10.7499 6.3335 10.7499H7.25016V10.9999C7.25016 11.4141 7.58595 11.7499 8.00016 11.7499C8.41438 11.7499 8.75016 11.4141 8.75016 10.9999V10.7479C9.18396 10.7273 9.59577 10.5458 9.90427 10.2374C10.2325 9.90917 10.4168 9.46405 10.4168 8.99992C10.4168 8.53579 10.2325 8.09067 9.90427 7.76248C9.57608 7.43429 9.13096 7.24992 8.66683 7.24992H7.3335C7.26719 7.24992 7.2036 7.22358 7.15672 7.1767C7.10984 7.12981 7.0835 7.06622 7.0835 6.99992C7.0835 6.93361 7.10984 6.87003 7.15672 6.82314C7.2036 6.77626 7.26719 6.74992 7.3335 6.74992H8.00016H9.3335C9.74771 6.74992 10.0835 6.41413 10.0835 5.99992C10.0835 5.5857 9.74771 5.24992 9.3335 5.24992H8.75016Z" fill="url(#paint0_radial_6382_25232)"/>
</g>
<defs>
<radialGradient id="paint0_radial_6382_25232" cx="0" cy="0" r="1" gradientUnits="userSpaceOnUse" gradientTransform="translate(13.6019 0.583252) rotate(-180) scale(13.0184 28.1198)">
<stop stop-color="#E681BF"/>
<stop offset="0.6875" stop-color="#544BFD"/>
<stop offset="0.817708" stop-color="#5249FE"/>
<stop offset="1" stop-color="#352BFD"/>
</radialGradient>
<clipPath id="clip0_6382_25232">
<rect width="16" height="16" fill="white"/>
</clipPath>
</defs>
</svg>
