<svg width="33" height="32" viewBox="0 0 33 32" fill="none" xmlns="http://www.w3.org/2000/svg">
<g clip-path="url(#clip0_2244_26846)">
<path d="M26.3999 18.0959L16.3999 27.9999L6.3999 18.0959C5.7403 17.4541 5.22075 16.6826 4.87396 15.8301C4.52717 14.9776 4.36065 14.0625 4.38488 13.1425C4.40911 12.2225 4.62358 11.3174 5.01477 10.4844C5.40597 9.65129 5.96541 8.90825 6.65788 8.30202C7.35035 7.69578 8.16084 7.2395 9.03831 6.96188C9.91579 6.68427 10.8412 6.59136 11.7564 6.68898C12.6715 6.7866 13.5566 7.07265 14.3557 7.52912C15.1549 7.98558 15.8509 8.60258 16.3999 9.34124C16.9513 8.60794 17.6481 7.99634 18.4467 7.54472C19.2453 7.0931 20.1286 6.81118 21.0411 6.7166C21.9537 6.62203 22.876 6.71684 23.7503 6.9951C24.6245 7.27336 25.4319 7.72907 26.122 8.33373C26.812 8.93838 27.3698 9.67896 27.7605 10.5091C28.1511 11.3392 28.3662 12.2411 28.3923 13.1582C28.4184 14.0753 28.2549 14.9879 27.9121 15.8389C27.5692 16.6899 27.0544 17.461 26.3999 18.1039" stroke="url(#paint0_radial_2244_26846)" stroke-width="2" stroke-linecap="round" stroke-linejoin="round"/>
</g>
<defs>
<radialGradient id="paint0_radial_2244_26846" cx="0" cy="0" r="1" gradientUnits="userSpaceOnUse" gradientTransform="translate(25.457 6.65137) rotate(-180) scale(21.0744 40.4707)">
<stop stop-color="#B98ADE"/>
<stop offset="0.6875" stop-color="#544BFD"/>
<stop offset="0.817708" stop-color="#5249FE"/>
<stop offset="1" stop-color="#352BFD"/>
</radialGradient>
<clipPath id="clip0_2244_26846">
<rect width="32" height="32" fill="white" transform="translate(0.399902)"/>
</clipPath>
</defs>
</svg>
