<svg width="32" height="32" viewBox="0 0 32 32" fill="none" xmlns="http://www.w3.org/2000/svg">
<path fill-rule="evenodd" clip-rule="evenodd" d="M24.14 6.33325C23.824 6.33325 23.6667 6.56161 23.6667 6.72473V26.6084C23.6667 26.7716 23.824 26.9999 24.14 26.9999H26.5267C26.8427 26.9999 27 26.7716 27 26.6084V6.72473C27 6.56161 26.8427 6.33325 26.5267 6.33325H24.14ZM21.6667 6.72473C21.6667 5.35087 22.8286 4.33325 24.14 4.33325H26.5267C27.838 4.33325 29 5.35087 29 6.72473V26.6084C29 27.9823 27.838 28.9999 26.5267 28.9999H24.14C22.8286 28.9999 21.6667 27.9823 21.6667 26.6084V6.72473ZM14.8067 14.3333C14.4616 14.3333 14.3333 14.5703 14.3333 14.6838V26.6494C14.3333 26.7628 14.4616 26.9999 14.8067 26.9999H17.1933C17.5384 26.9999 17.6667 26.7628 17.6667 26.6494V14.6838C17.6667 14.5703 17.5384 14.3333 17.1933 14.3333H14.8067ZM12.3333 14.6838C12.3333 13.3055 13.5244 12.3333 14.8067 12.3333H17.1933C18.4756 12.3333 19.6667 13.3055 19.6667 14.6838V26.6494C19.6667 28.0277 18.4756 28.9999 17.1933 28.9999H14.8067C13.5244 28.9999 12.3333 28.0277 12.3333 26.6494V14.6838ZM5 25.3333C5 24.4128 5.74619 23.6666 6.66667 23.6666C7.58714 23.6666 8.33333 24.4128 8.33333 25.3333C8.33333 26.2537 7.58714 26.9999 6.66667 26.9999C5.74619 26.9999 5 26.2537 5 25.3333ZM6.66667 21.6666C4.64162 21.6666 3 23.3082 3 25.3333C3 27.3583 4.64162 28.9999 6.66667 28.9999C8.69171 28.9999 10.3333 27.3583 10.3333 25.3333C10.3333 23.3082 8.69171 21.6666 6.66667 21.6666Z" fill="url(#paint0_radial_1802_10580)"/>
<defs>
<radialGradient id="paint0_radial_1802_10580" cx="0" cy="0" r="1" gradientUnits="userSpaceOnUse" gradientTransform="translate(25.8188 4.33325) rotate(-180) scale(22.8188 46.7609)">
<stop stop-color="#B98ADE"/>
<stop offset="0.6875" stop-color="#544BFD"/>
<stop offset="0.817708" stop-color="#5249FE"/>
<stop offset="1" stop-color="#352BFD"/>
</radialGradient>
</defs>
</svg>
