<svg width="16" height="16" viewBox="0 0 16 16" fill="none" xmlns="http://www.w3.org/2000/svg">
<g clip-path="url(#clip0_6382_24973)">
<path fill-rule="evenodd" clip-rule="evenodd" d="M8.49673 0.771183C8.2131 0.520608 7.78722 0.520608 7.5036 0.771183C5.91691 2.17297 3.84581 2.90298 1.72909 2.80626C1.38409 2.79049 1.07292 3.01236 0.975384 3.34367C0.610486 4.5832 0.498829 5.88335 0.647061 7.16684C0.795294 8.45033 1.20038 9.69093 1.83822 10.8149C2.47605 11.9389 3.3336 12.9233 4.35985 13.7097C5.38609 14.496 6.5601 15.0683 7.81211 15.3926C7.93544 15.4246 8.06488 15.4246 8.18821 15.3926C9.44022 15.0683 10.6142 14.496 11.6405 13.7097C12.6667 12.9233 13.5243 11.9389 14.1621 10.8149C14.7999 9.69093 15.205 8.45034 15.3533 7.16684C15.5015 5.88335 15.3898 4.5832 15.0249 3.34367C14.9274 3.01236 14.6162 2.79049 14.2712 2.80626C12.1545 2.90298 10.0834 2.17297 8.49673 0.771183ZM2.13716 6.99475C2.03362 6.09823 2.08028 5.19209 2.27398 4.31325C4.34912 4.27634 6.35769 3.57192 8.00016 2.30536C9.64263 3.57192 11.6512 4.27634 13.7263 4.31325C13.92 5.19209 13.9667 6.09823 13.8632 6.99475C13.738 8.07824 13.3961 9.1256 12.8575 10.0746C12.319 11.0236 11.5949 11.8549 10.7281 12.519C9.91297 13.1437 8.9873 13.6084 8.00016 13.8894C7.01302 13.6084 6.08736 13.1437 5.27219 12.519C4.40546 11.8549 3.68133 11.0236 3.1428 10.0746C2.60426 9.1256 2.26229 8.07824 2.13716 6.99475ZM11.1972 6.86358C11.4901 6.57069 11.4901 6.09581 11.1972 5.80292C10.9043 5.51003 10.4294 5.51003 10.1365 5.80292L7.3335 8.60592L6.19716 7.46959C5.90427 7.17669 5.42939 7.17669 5.1365 7.46959C4.84361 7.76248 4.84361 8.23736 5.1365 8.53025L6.80317 10.1969C7.09606 10.4898 7.57093 10.4898 7.86383 10.1969L11.1972 6.86358Z" fill="url(#paint0_radial_6382_24973)"/>
</g>
<defs>
<radialGradient id="paint0_radial_6382_24973" cx="0" cy="0" r="1" gradientUnits="userSpaceOnUse" gradientTransform="translate(13.6019 0.583252) rotate(-180) scale(13.0184 28.1198)">
<stop stop-color="#E681BF"/>
<stop offset="0.6875" stop-color="#544BFD"/>
<stop offset="0.817708" stop-color="#5249FE"/>
<stop offset="1" stop-color="#352BFD"/>
</radialGradient>
<clipPath id="clip0_6382_24973">
<rect width="16" height="16" fill="white"/>
</clipPath>
</defs>
</svg>
