<svg width="189" height="17" viewBox="0 0 189 17" fill="none" xmlns="http://www.w3.org/2000/svg">
<path d="M6.4067 9.33635C10.8167 9.33635 13.9413 8.56072 13.9413 4.85989C13.9413 1.15906 10.8167 0.383437 6.4067 0.383437H0.800049V0.760168C1.77512 0.760168 2.39562 1.93468 2.39562 3.30864V12.9485C2.39562 14.4555 1.86376 15.6078 0.933013 15.6078V15.9845H8.22387V15.6078C7.27096 15.6078 5.60891 15.4527 5.60891 12.9485V9.33635H6.4067ZM5.60891 0.760168H6.4067C8.57844 0.760168 10.307 0.915294 10.307 4.85989C10.307 8.78233 8.57844 8.95961 6.4067 8.95961H5.60891V0.760168Z" fill="url(#paint0_radial_3686_83153)"/>
<path d="M28.0658 13.4361C26.9799 9.44715 25.2071 8.47208 23.7666 8.6272C26.4038 8.31695 28.088 7.31972 28.088 4.61612C28.088 0.915294 24.9855 0.383437 20.5755 0.383437H15.0797V0.760168C16.0547 0.760168 16.6752 1.35851 16.6752 2.73247V13.3031C16.6752 14.81 16.0326 15.6078 15.0797 15.6078V15.9845H21.5284V15.6078C20.5977 15.6078 19.8885 14.81 19.8885 13.3031V8.87097H20.9301C20.9301 8.87097 22.9689 8.87097 23.7002 11.1535C25.2514 15.9624 24.6752 15.9624 28.6198 15.9845H30.6586V15.6078C30.0824 15.5635 28.509 15.1203 28.0658 13.4361ZM20.5755 8.49424H19.8885V0.760168H20.5755C22.7251 0.760168 24.4758 0.760168 24.4758 4.61612C24.4758 8.47208 22.7251 8.49424 20.5755 8.49424Z" fill="url(#paint1_radial_3686_83153)"/>
<path d="M43.5016 11.1535C42.5708 15.6078 36.6982 15.6078 36.6982 15.6078H35.9005V8.2948H36.6982C36.6982 8.2948 40.0667 8.29479 40.2883 10.5995H40.665V5.61335H40.2883C40.0667 7.91806 36.6982 7.91806 36.6982 7.91806H35.9005V0.760168H36.6982C36.6982 0.760168 42.7038 0.760168 43.2135 4.59396H43.5902V0.383437H31.4018V0.760168C32.3769 0.760168 32.6872 2.06765 32.6872 3.44161V12.9485C32.6872 14.4555 32.3326 15.6078 31.4018 15.6078V15.9845H43.8783V11.1535H43.5016Z" fill="url(#paint2_radial_3686_83153)"/>
<path d="M54.5004 7.62997L51.0876 5.36959C48.2067 3.48593 49.071 0.560722 51.4643 0.560722C55.0101 0.560722 56.3619 3.79618 56.7829 4.9707H57.1596V1.2477C57.1596 1.2477 55.2538 0.18399 51.4643 0.18399C47.963 0.18399 46.8771 1.8682 46.8771 1.8682C45.0378 4.28371 46.2123 6.49978 49.3591 8.47208L52.7718 10.6217C55.4754 12.594 54.7441 15.8073 52.3729 15.8073C48.4283 15.8073 47.1652 11.907 46.6776 10.5552H46.3009V14.81C46.3009 14.81 48.0738 16.184 52.3729 16.184C55.9408 16.184 56.9823 14.3668 56.9823 14.3668C58.6444 11.9513 57.4256 9.55795 54.5004 7.62997Z" fill="url(#paint3_radial_3686_83153)"/>
<path d="M68.156 7.62997L64.7433 5.36959C61.8624 3.48593 62.7266 0.560722 65.12 0.560722C68.6657 0.560722 70.0175 3.79618 70.4385 4.9707H70.8153V1.2477C70.8153 1.2477 68.9095 0.18399 65.12 0.18399C61.6186 0.18399 60.5327 1.8682 60.5327 1.8682C58.6934 4.28371 59.8679 6.49978 63.0147 8.47208L66.4275 10.6217C69.1311 12.594 68.3998 15.8073 66.0286 15.8073C62.084 15.8073 60.8208 11.907 60.3333 10.5552H59.9566V14.81C59.9566 14.81 61.7294 16.184 66.0286 16.184C69.5964 16.184 70.638 14.3668 70.638 14.3668C72.3 11.9513 71.0812 9.55795 68.156 7.62997Z" fill="url(#paint4_radial_3686_83153)"/>
<path d="M86.657 7.98454C87.1003 7.98454 90.6238 7.45269 90.6238 4.15075C90.6238 0.250473 87.7429 0.383437 84.6626 0.383437H79.2775V0.560722C80.2526 0.560722 80.5629 2.06765 80.5629 3.44161V12.9485C80.5629 14.4555 80.2304 15.7851 79.2775 15.7851V15.9845H84.6626C88.4964 15.9845 91.6654 15.8959 91.6654 12.0178C91.6654 8.22831 88.0975 7.98454 86.657 7.98454ZM84.6626 0.760168C85.7041 0.760168 87.5435 0.804489 87.5435 4.10643C87.5435 7.38621 85.8593 7.8959 84.6626 7.8959H83.7983V0.760168H84.6626ZM84.6626 15.6078H83.7983V8.27263H84.6626C86.1473 8.27263 88.4077 8.38344 88.4077 11.907C88.4077 15.6521 86.5906 15.6078 84.6626 15.6078Z" fill="url(#paint5_radial_3686_83153)"/>
<path d="M105.372 13.9901C105.372 13.9901 105.172 13.4139 99.7427 0.383437H99.366L95.5322 10.4887C93.3605 15.7408 92.8064 15.5635 92.2303 15.6078V15.9845H97.6818V15.6078C94.1804 15.7851 95.5544 11.6189 95.5544 11.6189H100.806L101.471 13.2366C101.471 13.2366 102.624 15.6078 100.895 15.6078V15.9845H107.233V15.6078C106.657 15.5635 106.125 15.7629 105.372 13.9901ZM95.6209 11.2422L98.0364 4.77125L100.673 11.2422H95.6209Z" fill="url(#paint6_radial_3686_83153)"/>
<path d="M120.285 11.3308C119.709 13.7463 117.892 15.8073 115.232 15.8073C112.839 15.8073 111.532 14.2782 111.532 8.18399C111.532 2.11197 112.773 0.560722 115.232 0.560722C117.759 0.560722 119.044 2.02333 120.285 5.01502H120.662L120.972 1.53579C119.576 0.405598 117.515 0.18399 115.232 0.18399C110.49 0.18399 107.543 3.77402 107.543 8.18399C107.543 12.594 110.49 16.184 115.232 16.184C117.604 16.184 119.332 15.8959 120.972 14.81L120.662 11.3308H120.285Z" fill="url(#paint7_radial_3686_83153)"/>
<path d="M122.623 0.383437V0.760168C123.576 0.760168 124.197 1.35851 124.197 2.73247V13.2588C124.197 14.7657 123.554 15.6078 122.623 15.6078V15.9845H129.072V15.6078C128.119 15.6078 127.41 14.7657 127.41 13.2588V2.73247C127.41 1.11474 128.341 0.760168 129.316 0.760168V0.383437H122.623ZM136.496 14.1674C136.496 14.1674 136.274 13.8793 131.089 6.94299C135.876 0.804489 137.427 0.760168 138.912 0.760168V0.383437H131.599V0.760168C135.543 0.848811 131.731 5.1923 131.731 5.1923L128.673 8.89313C128.673 8.89313 129.626 10.1563 130.912 11.9735C133.238 15.3419 133.77 15.9845 136.119 15.9845H139.621V15.6078C139.022 15.6078 137.582 15.6078 136.496 14.1674Z" fill="url(#paint8_radial_3686_83153)"/>
<path d="M152.617 11.1535C151.686 15.6078 145.814 15.6078 145.814 15.6078H145.016V8.2948H145.814C145.814 8.2948 149.182 8.29479 149.404 10.5995H149.78V5.61335H149.404C149.182 7.91806 145.814 7.91806 145.814 7.91806H145.016V0.760168H145.814C145.814 0.760168 151.819 0.760168 152.329 4.59396H152.706V0.383437H140.517V0.760168C141.492 0.760168 141.802 2.06765 141.802 3.44161V12.9485C141.802 14.4555 141.448 15.6078 140.517 15.6078V15.9845H152.994V11.1535H152.617Z" fill="url(#paint9_radial_3686_83153)"/>
<path d="M165.92 0.383437V0.760168C168.979 0.738008 168.956 6.01225 168.956 6.01225V11.3973L160.026 0.383437H154.596V0.760168C155.172 0.804489 155.815 0.560722 157.233 2.33358L158.098 3.41945V10.3336C158.098 10.3336 158.12 15.6078 154.774 15.6078V15.9845H161.51V15.6078C158.452 15.6078 158.474 10.3336 158.474 10.3336V3.81834L168.159 15.9845H169.333V6.01225C169.333 6.01225 169.289 0.738008 172.635 0.760168V0.383437H165.92Z" fill="url(#paint10_radial_3686_83153)"/>
<path d="M179.679 0.383437H173.828V0.760168C174.803 0.760168 175.49 2.06765 175.49 3.44161V12.9485C175.49 14.4555 174.781 15.6078 173.828 15.6078V15.9845H179.679C184.089 15.9845 188.964 14.7214 188.964 8.25047C188.964 1.7574 184.089 0.383437 179.679 0.383437ZM179.679 15.6078H178.704V0.760168H179.679C181.85 0.760168 185.086 1.33635 185.086 8.25047C185.086 15.1424 181.85 15.6078 179.679 15.6078Z" fill="url(#paint11_radial_3686_83153)"/>
<defs>
<radialGradient id="paint0_radial_3686_83153" cx="0" cy="0" r="1" gradientUnits="userSpaceOnUse" gradientTransform="translate(165.941 0.18399) rotate(-180) scale(165.141 30.3314)">
<stop stop-color="white"/>
<stop offset="0.6875" stop-color="white" stop-opacity="0.9"/>
<stop offset="0.817708" stop-color="white" stop-opacity="0.8"/>
<stop offset="1" stop-color="white" stop-opacity="0.7"/>
</radialGradient>
<radialGradient id="paint1_radial_3686_83153" cx="0" cy="0" r="1" gradientUnits="userSpaceOnUse" gradientTransform="translate(165.941 0.18399) rotate(-180) scale(165.141 30.3314)">
<stop stop-color="white"/>
<stop offset="0.6875" stop-color="white" stop-opacity="0.9"/>
<stop offset="0.817708" stop-color="white" stop-opacity="0.8"/>
<stop offset="1" stop-color="white" stop-opacity="0.7"/>
</radialGradient>
<radialGradient id="paint2_radial_3686_83153" cx="0" cy="0" r="1" gradientUnits="userSpaceOnUse" gradientTransform="translate(165.941 0.18399) rotate(-180) scale(165.141 30.3314)">
<stop stop-color="white"/>
<stop offset="0.6875" stop-color="white" stop-opacity="0.9"/>
<stop offset="0.817708" stop-color="white" stop-opacity="0.8"/>
<stop offset="1" stop-color="white" stop-opacity="0.7"/>
</radialGradient>
<radialGradient id="paint3_radial_3686_83153" cx="0" cy="0" r="1" gradientUnits="userSpaceOnUse" gradientTransform="translate(165.941 0.18399) rotate(-180) scale(165.141 30.3314)">
<stop stop-color="white"/>
<stop offset="0.6875" stop-color="white" stop-opacity="0.9"/>
<stop offset="0.817708" stop-color="white" stop-opacity="0.8"/>
<stop offset="1" stop-color="white" stop-opacity="0.7"/>
</radialGradient>
<radialGradient id="paint4_radial_3686_83153" cx="0" cy="0" r="1" gradientUnits="userSpaceOnUse" gradientTransform="translate(165.941 0.18399) rotate(-180) scale(165.141 30.3314)">
<stop stop-color="white"/>
<stop offset="0.6875" stop-color="white" stop-opacity="0.9"/>
<stop offset="0.817708" stop-color="white" stop-opacity="0.8"/>
<stop offset="1" stop-color="white" stop-opacity="0.7"/>
</radialGradient>
<radialGradient id="paint5_radial_3686_83153" cx="0" cy="0" r="1" gradientUnits="userSpaceOnUse" gradientTransform="translate(165.941 0.18399) rotate(-180) scale(165.141 30.3314)">
<stop stop-color="white"/>
<stop offset="0.6875" stop-color="white" stop-opacity="0.9"/>
<stop offset="0.817708" stop-color="white" stop-opacity="0.8"/>
<stop offset="1" stop-color="white" stop-opacity="0.7"/>
</radialGradient>
<radialGradient id="paint6_radial_3686_83153" cx="0" cy="0" r="1" gradientUnits="userSpaceOnUse" gradientTransform="translate(165.941 0.18399) rotate(-180) scale(165.141 30.3314)">
<stop stop-color="white"/>
<stop offset="0.6875" stop-color="white" stop-opacity="0.9"/>
<stop offset="0.817708" stop-color="white" stop-opacity="0.8"/>
<stop offset="1" stop-color="white" stop-opacity="0.7"/>
</radialGradient>
<radialGradient id="paint7_radial_3686_83153" cx="0" cy="0" r="1" gradientUnits="userSpaceOnUse" gradientTransform="translate(165.941 0.18399) rotate(-180) scale(165.141 30.3314)">
<stop stop-color="white"/>
<stop offset="0.6875" stop-color="white" stop-opacity="0.9"/>
<stop offset="0.817708" stop-color="white" stop-opacity="0.8"/>
<stop offset="1" stop-color="white" stop-opacity="0.7"/>
</radialGradient>
<radialGradient id="paint8_radial_3686_83153" cx="0" cy="0" r="1" gradientUnits="userSpaceOnUse" gradientTransform="translate(165.941 0.18399) rotate(-180) scale(165.141 30.3314)">
<stop stop-color="white"/>
<stop offset="0.6875" stop-color="white" stop-opacity="0.9"/>
<stop offset="0.817708" stop-color="white" stop-opacity="0.8"/>
<stop offset="1" stop-color="white" stop-opacity="0.7"/>
</radialGradient>
<radialGradient id="paint9_radial_3686_83153" cx="0" cy="0" r="1" gradientUnits="userSpaceOnUse" gradientTransform="translate(165.941 0.18399) rotate(-180) scale(165.141 30.3314)">
<stop stop-color="white"/>
<stop offset="0.6875" stop-color="white" stop-opacity="0.9"/>
<stop offset="0.817708" stop-color="white" stop-opacity="0.8"/>
<stop offset="1" stop-color="white" stop-opacity="0.7"/>
</radialGradient>
<radialGradient id="paint10_radial_3686_83153" cx="0" cy="0" r="1" gradientUnits="userSpaceOnUse" gradientTransform="translate(165.941 0.18399) rotate(-180) scale(165.141 30.3314)">
<stop stop-color="white"/>
<stop offset="0.6875" stop-color="white" stop-opacity="0.9"/>
<stop offset="0.817708" stop-color="white" stop-opacity="0.8"/>
<stop offset="1" stop-color="white" stop-opacity="0.7"/>
</radialGradient>
<radialGradient id="paint11_radial_3686_83153" cx="0" cy="0" r="1" gradientUnits="userSpaceOnUse" gradientTransform="translate(165.941 0.18399) rotate(-180) scale(165.141 30.3314)">
<stop stop-color="white"/>
<stop offset="0.6875" stop-color="white" stop-opacity="0.9"/>
<stop offset="0.817708" stop-color="white" stop-opacity="0.8"/>
<stop offset="1" stop-color="white" stop-opacity="0.7"/>
</radialGradient>
</defs>
</svg>
