<svg width="103" height="64" viewBox="0 0 103 64" fill="none" xmlns="http://www.w3.org/2000/svg">
<path d="M8.19971 11.1458H12.3618L12.3063 12.6463C12.9167 11.5627 13.9989 10.9235 15.0533 10.9235C16.0799 10.9235 16.6903 11.2014 17.1065 11.5904L15.4417 15.3417H15.3862C15.0255 14.9249 14.637 14.7582 14.0544 14.7582C12.8612 14.7582 12.3618 15.4806 12.3618 17.0645V23.4H8.19971V11.1458ZM22.767 20.5379C24.0433 20.5379 25.0145 20.26 25.5694 19.0374L29.0933 20.1489C27.9557 22.6219 25.7637 23.8168 22.8225 23.8168C18.9934 23.8168 16.2186 21.4549 16.2186 17.3979C16.2186 13.2577 18.8269 10.7846 22.7392 10.7846C25.7914 10.7846 29.565 12.5352 29.0933 18.2593H20.2142C20.464 19.7598 21.4074 20.5379 22.767 20.5379V20.5379ZM25.1532 15.8697C24.959 14.7026 24.2098 14.0357 22.7392 14.0357C21.4074 14.0357 20.5472 14.4525 20.242 15.8697H25.1532V15.8697ZM43.9935 19.5653V11.1181H48.1556V18.1204C48.1556 19.343 48.5718 20.1767 49.8205 20.1767C51.3743 20.1767 52.2345 19.343 52.2345 16.7311V11.1181H56.3965V23.4H52.2345L52.2899 21.2326C51.4575 22.6775 50.1257 23.7334 47.9614 23.7334C45.6029 23.7334 43.9935 22.5386 43.9935 19.5653V19.5653ZM71.6297 7.20007H75.7918V23.4H71.6297V7.20007ZM77.2346 7.20007H81.3967V10.8958H77.2346V7.20007V7.20007ZM77.2346 12.0628H81.3967V23.4H77.2346V12.0628V12.0628ZM91.247 18.2593C91.025 19.7043 90.2203 20.5379 88.9717 20.5379C87.4179 20.5379 86.5854 19.3153 86.5854 17.259C86.5854 15.1472 87.4734 14.1746 88.9717 14.1746C90.2481 14.1746 91.025 14.8971 91.247 16.2865C91.247 16.2865 94.1049 14.8693 94.9373 14.4525C93.9662 12.174 91.7742 10.7568 88.9717 10.7568C85.1426 10.7568 82.4234 13.2577 82.4234 17.3979C82.4234 21.4549 85.1703 23.8168 88.9717 23.8168C91.8574 23.8168 94.1604 22.4274 95.0761 19.8988L91.247 18.2593V18.2593ZM34.1433 27.2902V21.7605C34.7537 22.7331 35.7804 23.7056 37.9169 23.7056C41.0246 23.7056 43.0224 21.3993 43.0224 17.3146C43.0224 13.2021 41.2466 10.7568 38.0002 10.7568C36.0301 10.7568 34.948 11.4793 34.1156 12.8964L34.1711 11.0903H30.009V27.2902H34.1433V27.2902ZM36.4186 14.1191C37.9724 14.1191 38.8048 15.3417 38.8048 17.3979C38.8048 19.5098 37.9169 20.4823 36.4186 20.4823C34.8647 20.4823 34.0601 19.4264 34.0601 17.3702C34.0601 15.3417 34.8925 14.1191 36.4186 14.1191V14.1191ZM57.7006 7.20007V23.4H61.8627L61.8072 21.5938C62.6396 22.9832 63.7495 23.7334 65.6918 23.7334C68.9382 23.7334 70.7141 21.2881 70.7141 17.1756C70.7141 13.0909 68.744 10.7846 65.6086 10.7846C63.4721 10.7846 62.4454 11.7572 61.835 12.7297V7.20007H57.7006ZM61.7795 17.1201C61.7795 15.0638 62.5841 14.0079 64.138 14.0079C65.6363 14.0079 66.5242 14.9805 66.5242 17.0923C66.5242 19.1485 65.6918 20.3712 64.138 20.3712C62.5841 20.3712 61.7795 19.1485 61.7795 17.1201ZM11.9456 30.2356C11.7236 30.0411 11.4461 29.9299 11.0577 29.9299C10.697 29.9299 10.364 30.0689 10.1143 30.3467V30.0411H8.19971V35.1539H10.1143V32.4863C10.1143 31.8472 10.3362 31.7083 10.6692 31.7083C10.8634 31.7083 10.9744 31.7639 11.1132 31.9028L11.1687 31.9584H11.3074L12.0566 30.319L11.9456 30.2356V30.2356ZM15.3307 33.3477C15.1642 33.6534 14.8868 33.7646 14.3873 33.7646C13.9711 33.7646 13.6659 33.5423 13.5549 33.1255H17.0233V33.0143C17.1065 32.0418 16.8846 31.2637 16.3851 30.7358C15.9134 30.2078 15.192 29.9299 14.3596 29.9299C12.6947 29.9299 11.6404 31.0136 11.6404 32.6809C11.6404 34.2925 12.7225 35.3484 14.3873 35.3484C15.5805 35.3484 16.4961 34.876 16.9678 33.9313L15.3307 33.3477V33.3477ZM13.5827 31.9028C13.6936 31.5694 13.9434 31.4304 14.3873 31.4304C14.8035 31.4304 15.081 31.5694 15.1642 31.9028H13.5827ZM25.4584 29.9299C23.8214 29.9299 22.7392 31.0414 22.7392 32.6809C22.7392 34.2925 23.7936 35.3484 25.4584 35.3484C27.0955 35.3484 28.1777 34.2647 28.1777 32.6253C28.1777 31.0414 27.04 29.9299 25.4584 29.9299V29.9299ZM25.4584 31.5138C25.9856 31.5138 26.2631 31.875 26.2631 32.6253C26.2631 33.0699 26.1521 33.7923 25.4584 33.7923C24.7925 33.7923 24.6538 33.1532 24.6538 32.6253C24.6538 31.9028 24.9312 31.5138 25.4584 31.5138V31.5138ZM32.2842 30.2634C32.0623 30.0689 31.7848 29.9577 31.3963 29.9577C31.0356 29.9577 30.7027 30.0967 30.4529 30.3745V30.0411H28.5384V35.1539H30.4529V32.5141C30.4529 31.875 30.6749 31.7361 30.9801 31.7361C31.1744 31.7361 31.3131 31.7917 31.4241 31.9028L31.4796 31.9584H31.6183L32.3675 30.319L32.2842 30.2634V30.2634ZM37.7782 34.3481L37.8337 34.4037C38.4441 35.015 39.3598 35.2928 40.5806 35.2928C42.6062 35.2928 43.0224 34.3203 43.0224 33.4867C43.0224 31.9306 41.3853 31.7917 40.6084 31.7361C39.9147 31.6805 39.8592 31.6527 39.8592 31.5138C39.8592 31.3193 40.0534 31.2637 40.4419 31.2637C41.2466 31.2637 41.7183 31.4026 41.968 31.5972L42.0512 31.6527L42.8559 30.5412L42.7727 30.4857C42.412 30.2356 41.6073 29.9577 40.4974 29.9577C38.9713 29.9577 38.0834 30.5968 38.0834 31.6805C38.0834 33.0699 39.1655 33.32 40.2199 33.4311C40.3864 33.4589 40.5529 33.4589 40.6639 33.4867C41.1911 33.5423 41.1911 33.57 41.1911 33.6534C41.1911 33.7923 41.1911 33.9313 40.5529 33.9313C39.665 33.9313 39.1378 33.709 38.8048 33.4311L38.7493 33.3755L37.7782 34.3481ZM35.6694 30.4301C35.4197 30.1522 35.0035 29.9021 34.3098 29.9021C32.9779 29.9021 32.1733 30.9025 32.1733 32.5697C32.1733 34.2925 32.9502 35.2928 34.282 35.2928C34.8925 35.2928 35.3364 35.1261 35.6694 34.7371V35.1539H37.584V28.485H35.6694V30.4301V30.4301ZM35.6971 32.5419C35.6971 32.9865 35.5862 33.709 34.8925 33.709C34.2265 33.709 34.0878 33.0699 34.0878 32.5419C34.0878 31.8195 34.3653 31.4582 34.8925 31.4582C35.4197 31.4582 35.6971 31.8195 35.6971 32.5419ZM20.8802 32.3752C20.8247 31.7917 20.5749 31.486 20.0755 31.486C19.5483 31.486 19.2708 31.8472 19.2708 32.5697C19.2708 33.0977 19.4096 33.7368 20.0755 33.7368C20.7137 33.7368 20.8524 33.1532 20.8802 32.7364L22.656 33.5145C22.323 34.626 21.3796 35.2928 20.0755 35.2928C18.4384 35.2928 17.3563 34.2369 17.3563 32.6253C17.3563 30.9858 18.4384 29.8744 20.0755 29.8744C21.2686 29.8744 22.1843 30.4857 22.5727 31.4582L20.8802 32.3752V32.3752ZM43.9658 29.9299H95.0206V35.3206H43.9658V29.9299ZM8.19971 40.6835H95.0483V46.0465H8.19971V40.6835ZM8.19971 51.4372H95.0483V56.8001H8.19971V51.4372Z" fill="#736F87"/>
</svg>
