<svg width="32" height="32" viewBox="0 0 32 32" fill="none" xmlns="http://www.w3.org/2000/svg">
<path fill-rule="evenodd" clip-rule="evenodd" d="M8.60142 10.1346C8.60142 8.03519 10.3034 6.33325 12.4028 6.33325C14.5023 6.33325 16.2042 8.03519 16.2042 10.1346C16.2042 12.2341 14.5023 13.936 12.4028 13.936C10.3034 13.936 8.60142 12.2341 8.60142 10.1346ZM12.4028 4.33325C9.19879 4.33325 6.60142 6.93063 6.60142 10.1346C6.60142 13.3387 9.19879 15.936 12.4028 15.936C15.6068 15.936 18.2042 13.3387 18.2042 10.1346C18.2042 6.93063 15.6068 4.33325 12.4028 4.33325ZM6.29171 21.9029C7.14703 21.1697 8.33591 20.7373 9.60187 20.7373H15.2035C16.4695 20.7373 17.6583 21.1697 18.5137 21.9029C19.3642 22.6319 19.8051 23.5846 19.8051 24.5387V26.9394C19.8051 27.4917 20.2528 27.9394 20.8051 27.9394C21.3574 27.9394 21.8051 27.4917 21.8051 26.9394V24.5387C21.8051 22.946 21.0657 21.4562 19.8152 20.3844C18.5695 19.3166 16.9088 18.7373 15.2035 18.7373H9.60187C7.89655 18.7373 6.23583 19.3166 4.99013 20.3844C3.73967 21.4562 3.00024 22.946 3.00024 24.5387V26.9394C3.00024 27.4917 3.44796 27.9394 4.00024 27.9394C4.55253 27.9394 5.00024 27.4917 5.00024 26.9394V24.5387C5.00024 23.5846 5.44116 22.6319 6.29171 21.9029ZM19.8361 5.24099C19.9731 4.70597 20.5179 4.38329 21.0529 4.52028C22.3008 4.8398 23.4069 5.56555 24.1968 6.58313C24.9866 7.60071 25.4153 8.85223 25.4153 10.1404C25.4153 11.4285 24.9866 12.6801 24.1968 13.6976C23.4069 14.7152 22.3008 15.441 21.0529 15.7605C20.5179 15.8975 19.9731 15.5748 19.8361 15.0398C19.6991 14.5048 20.0218 13.96 20.5568 13.823C21.3745 13.6136 22.0993 13.1381 22.6169 12.4713C23.1344 11.8045 23.4153 10.9845 23.4153 10.1404C23.4153 9.29631 23.1344 8.47625 22.6169 7.80947C22.0993 7.1427 21.3745 6.66715 20.5568 6.45778C20.0218 6.3208 19.6991 5.77602 19.8361 5.24099ZM24.656 18.9492C24.1213 18.8112 23.5759 19.1327 23.4378 19.6675C23.2997 20.2022 23.6213 20.7477 24.1561 20.8857C24.9685 21.0955 25.6886 21.5681 26.2043 22.2299C26.7195 22.891 27.0017 23.7038 27.0071 24.5419V26.9395C27.0071 27.4918 27.4548 27.9395 28.0071 27.9395C28.5594 27.9395 29.0071 27.4918 29.0071 26.9395L29.0071 24.5388L29.0071 24.5331C28.9997 23.2526 28.569 22.0106 27.7819 21.0006C26.9949 19.9906 25.8958 19.2693 24.656 18.9492Z" fill="url(#paint0_radial_1802_10667)"/>
<defs>
<radialGradient id="paint0_radial_1802_10667" cx="0" cy="0" r="1" gradientUnits="userSpaceOnUse" gradientTransform="translate(25.8251 4.33325) rotate(-180) scale(22.8248 44.7507)">
<stop stop-color="#B98ADE"/>
<stop offset="0.6875" stop-color="#544BFD"/>
<stop offset="0.817708" stop-color="#5249FE"/>
<stop offset="1" stop-color="#352BFD"/>
</radialGradient>
</defs>
</svg>
