<svg width="78" height="14" viewBox="0 0 78 14" fill="none" xmlns="http://www.w3.org/2000/svg">
<path fill-rule="evenodd" clip-rule="evenodd" d="M6.40924 0.307985C6.58004 -0.102661 7.16177 -0.102662 7.33256 0.307984L8.86965 4.00358C8.94165 4.1767 9.10446 4.29498 9.29135 4.30996L13.2811 4.62982C13.7244 4.66536 13.9041 5.21861 13.5664 5.50795L10.5266 8.1118C10.3842 8.23378 10.3221 8.42517 10.3656 8.60754L11.2943 12.5008C11.3974 12.9334 10.9268 13.2754 10.5473 13.0435L7.13153 10.9572C6.97152 10.8595 6.77028 10.8595 6.61028 10.9572L3.19453 13.0435C2.81498 13.2754 2.34436 12.9334 2.44755 12.5008L3.37624 8.60754C3.41974 8.42517 3.35756 8.23378 3.21516 8.1118L0.17543 5.50795C-0.162339 5.21861 0.0174233 4.66536 0.46075 4.62982L4.45045 4.30996C4.63735 4.29498 4.80015 4.1767 4.87216 4.00358L6.40924 0.307985ZM23.3326 0.307984C23.1618 -0.102662 22.58 -0.102661 22.4092 0.307985L20.8722 4.00358C20.8002 4.1767 20.6374 4.29498 20.4505 4.30996L16.4608 4.62982C16.0174 4.66536 15.8377 5.21861 16.1754 5.50795L19.2152 8.1118C19.3576 8.23378 19.4197 8.42517 19.3762 8.60754L18.4475 12.5008C18.3444 12.9334 18.815 13.2754 19.1945 13.0435L22.6103 10.9572C22.7703 10.8595 22.9715 10.8595 23.1315 10.9572L26.5473 13.0435C26.9268 13.2754 27.3974 12.9334 27.2943 12.5008L26.3656 8.60754C26.3221 8.42517 26.3842 8.23378 26.5266 8.1118L29.5664 5.50795C29.9041 5.21861 29.7244 4.66536 29.2811 4.62982L25.2914 4.30996C25.1045 4.29498 24.9417 4.1767 24.8696 4.00358L23.3326 0.307984ZM39.3326 0.307984C39.1618 -0.102662 38.58 -0.102661 38.4092 0.307985L36.8722 4.00358C36.8002 4.1767 36.6373 4.29498 36.4505 4.30996L32.4608 4.62982C32.0174 4.66536 31.8377 5.21861 32.1754 5.50795L35.2152 8.1118C35.3576 8.23378 35.4197 8.42517 35.3762 8.60754L34.4476 12.5008C34.3444 12.9334 34.815 13.2754 35.1945 13.0435L38.6103 10.9572C38.7703 10.8595 38.9715 10.8595 39.1315 10.9572L42.5473 13.0435C42.9268 13.2754 43.3974 12.9334 43.2943 12.5008L42.3656 8.60754C42.3221 8.42517 42.3843 8.23378 42.5266 8.1118L45.5664 5.50795C45.9041 5.21861 45.7244 4.66536 45.2811 4.62982L41.2914 4.30996C41.1045 4.29498 40.9417 4.1767 40.8696 4.00358L39.3326 0.307984ZM55.3326 0.307984C55.1618 -0.102662 54.58 -0.102661 54.4092 0.307985L52.8722 4.00358C52.8002 4.1767 52.6373 4.29498 52.4505 4.30996L48.4608 4.62982C48.0174 4.66536 47.8377 5.21861 48.1754 5.50795L51.2152 8.1118C51.3576 8.23378 51.4197 8.42517 51.3762 8.60754L50.4476 12.5008C50.3444 12.9334 50.815 13.2754 51.1945 13.0435L54.6103 10.9572C54.7703 10.8595 54.9715 10.8595 55.1315 10.9572L58.5473 13.0435C58.9268 13.2754 59.3974 12.9334 59.2943 12.5008L58.3656 8.60754C58.3221 8.42517 58.3843 8.23378 58.5266 8.1118L61.5664 5.50795C61.9041 5.21861 61.7244 4.66536 61.2811 4.62982L57.2914 4.30996C57.1045 4.29498 56.9417 4.1767 56.8696 4.00358L55.3326 0.307984ZM71.3326 0.307984C71.1618 -0.102662 70.58 -0.102661 70.4092 0.307985L68.8722 4.00358C68.8002 4.1767 68.6374 4.29498 68.4505 4.30996L64.4607 4.62982C64.0174 4.66536 63.8377 5.21861 64.1754 5.50795L67.2152 8.1118C67.3576 8.23378 67.4197 8.42517 67.3762 8.60754L66.4475 12.5008C66.3444 12.9334 66.815 13.2754 67.1945 13.0435L70.6103 10.9572C70.7703 10.8595 70.9715 10.8595 71.1315 10.9572L74.5473 13.0435C74.9268 13.2754 75.3974 12.9334 75.2943 12.5008L74.3656 8.60754C74.3221 8.42517 74.3842 8.23378 74.5266 8.1118L77.5664 5.50795C77.9041 5.21861 77.7244 4.66536 77.2811 4.62982L73.2914 4.30996C73.1045 4.29498 72.9417 4.1767 72.8696 4.00358L71.3326 0.307984Z" fill="url(#paint0_radial_2476_46925)"/>
<defs>
<radialGradient id="paint0_radial_2476_46925" cx="0" cy="0" r="1" gradientUnits="userSpaceOnUse" gradientTransform="translate(68.2297) rotate(-180) scale(68.2297 24.8687)">
<stop stop-color="#D2B3EA"/>
<stop offset="1" stop-color="#8D7BFE"/>
</radialGradient>
</defs>
</svg>
