<svg width="14" height="14" viewBox="0 0 14 14" fill="none" xmlns="http://www.w3.org/2000/svg">
<path fill-rule="evenodd" clip-rule="evenodd" d="M7.33256 0.307983C7.16177 -0.102661 6.58004 -0.102661 6.40924 0.307983L4.87216 4.00358C4.80015 4.1767 4.63735 4.29498 4.45045 4.30996L0.46075 4.62982C0.0174233 4.66536 -0.162339 5.21861 0.17543 5.50795L3.21516 8.1118C3.35756 8.23378 3.41974 8.42517 3.37624 8.60754L2.44755 12.5008C2.34436 12.9334 2.81498 13.2754 3.19453 13.0435L6.61028 10.9572C6.77028 10.8595 6.97152 10.8595 7.13153 10.9572L10.5473 13.0435C10.9268 13.2754 11.3974 12.9334 11.2943 12.5008L10.3656 8.60754C10.3221 8.42517 10.3842 8.23378 10.5266 8.1118L13.5664 5.50795C13.9041 5.21861 13.7244 4.66536 13.2811 4.62982L9.29135 4.30996C9.10446 4.29498 8.94165 4.1767 8.86965 4.00358L7.33256 0.307983Z" fill="url(#paint0_radial_2476_47106)"/>
<defs>
<radialGradient id="paint0_radial_2476_47106" cx="0" cy="0" r="1" gradientUnits="userSpaceOnUse" gradientTransform="translate(12.0604) rotate(-180) scale(12.0604 24.8687)">
<stop stop-color="#D2B3EA"/>
<stop offset="1" stop-color="#8D7BFE"/>
</radialGradient>
</defs>
</svg>
