<svg width="62" height="14" viewBox="0 0 62 14" fill="none" xmlns="http://www.w3.org/2000/svg">
<path fill-rule="evenodd" clip-rule="evenodd" d="M7.33256 0.307984C7.16177 -0.102662 6.58004 -0.102661 6.40924 0.307985L4.87216 4.00358C4.80015 4.1767 4.63735 4.29498 4.45045 4.30996L0.46075 4.62982C0.0174233 4.66536 -0.162339 5.21861 0.17543 5.50795L3.21516 8.1118C3.35756 8.23378 3.41974 8.42517 3.37624 8.60754L2.44755 12.5008C2.34436 12.9334 2.81498 13.2754 3.19453 13.0435L6.61028 10.9572C6.77028 10.8595 6.97152 10.8595 7.13153 10.9572L10.5473 13.0435C10.9268 13.2754 11.3974 12.9334 11.2943 12.5008L10.3656 8.60754C10.3221 8.42517 10.3842 8.23378 10.5266 8.1118L13.5664 5.50795C13.9041 5.21861 13.7244 4.66536 13.2811 4.62982L9.29135 4.30996C9.10446 4.29498 8.94165 4.1767 8.86965 4.00358L7.33256 0.307984ZM22.4092 0.307985C22.58 -0.102661 23.1618 -0.102662 23.3326 0.307984L24.8696 4.00358C24.9417 4.1767 25.1045 4.29498 25.2914 4.30996L29.2811 4.62982C29.7244 4.66536 29.9041 5.21861 29.5664 5.50795L26.5266 8.1118C26.3842 8.23378 26.3221 8.42517 26.3656 8.60754L27.2943 12.5008C27.3974 12.9334 26.9268 13.2754 26.5473 13.0435L23.1315 10.9572C22.9715 10.8595 22.7703 10.8595 22.6103 10.9572L19.1945 13.0435C18.815 13.2754 18.3444 12.9334 18.4475 12.5008L19.3762 8.60754C19.4197 8.42517 19.3576 8.23378 19.2152 8.1118L16.1754 5.50795C15.8377 5.21861 16.0174 4.66536 16.4608 4.62982L20.4505 4.30996C20.6374 4.29498 20.8002 4.1767 20.8722 4.00358L22.4092 0.307985ZM38.4092 0.307985C38.58 -0.102661 39.1618 -0.102662 39.3326 0.307984L40.8696 4.00358C40.9417 4.1767 41.1045 4.29498 41.2914 4.30996L45.2811 4.62982C45.7244 4.66536 45.9041 5.21861 45.5664 5.50795L42.5266 8.1118C42.3843 8.23378 42.3221 8.42517 42.3656 8.60754L43.2943 12.5008C43.3974 12.9334 42.9268 13.2754 42.5473 13.0435L39.1315 10.9572C38.9715 10.8595 38.7703 10.8595 38.6103 10.9572L35.1945 13.0435C34.815 13.2754 34.3444 12.9334 34.4476 12.5008L35.3762 8.60754C35.4197 8.42517 35.3576 8.23378 35.2152 8.1118L32.1754 5.50795C31.8377 5.21861 32.0174 4.66536 32.4608 4.62982L36.4505 4.30996C36.6373 4.29498 36.8002 4.1767 36.8722 4.00358L38.4092 0.307985ZM54.4092 0.307985C54.58 -0.102661 55.1618 -0.102662 55.3326 0.307984L56.8696 4.00358C56.9417 4.1767 57.1045 4.29498 57.2914 4.30996L61.2811 4.62982C61.7244 4.66536 61.9041 5.21861 61.5664 5.50795L58.5266 8.1118C58.3843 8.23378 58.3221 8.42517 58.3656 8.60754L59.2943 12.5008C59.3974 12.9334 58.9268 13.2754 58.5473 13.0435L55.1315 10.9572C54.9715 10.8595 54.7703 10.8595 54.6103 10.9572L51.1945 13.0435C50.815 13.2754 50.3444 12.9334 50.4476 12.5008L51.3762 8.60754C51.4197 8.42517 51.3576 8.23378 51.2152 8.1118L48.1754 5.50795C47.8377 5.21861 48.0174 4.66536 48.4608 4.62982L52.4505 4.30996C52.6373 4.29498 52.8002 4.1767 52.8722 4.00358L54.4092 0.307985Z" fill="url(#paint0_radial_2476_46962)"/>
<defs>
<radialGradient id="paint0_radial_2476_46962" cx="0" cy="0" r="1" gradientUnits="userSpaceOnUse" gradientTransform="translate(54.1874) rotate(-180) scale(54.1874 24.8687)">
<stop stop-color="#D2B3EA"/>
<stop offset="1" stop-color="#8D7BFE"/>
</radialGradient>
</defs>
</svg>
