<svg width="30" height="14" viewBox="0 0 30 14" fill="none" xmlns="http://www.w3.org/2000/svg">
<path fill-rule="evenodd" clip-rule="evenodd" d="M7.46171 0.509888C7.29092 0.099242 6.70919 0.0992435 6.53839 0.50989L5.00131 4.20548C4.92931 4.3786 4.7665 4.49689 4.57961 4.51187L0.589901 4.83172C0.146574 4.86726 -0.0331884 5.42052 0.30458 5.70985L3.34431 8.31371C3.48671 8.43568 3.54889 8.62707 3.50539 8.80945L2.5767 12.7027C2.47351 13.1353 2.94413 13.4773 3.32368 13.2454L6.73943 11.1591C6.89943 11.0614 7.10067 11.0614 7.26068 11.1591L10.6764 13.2454C11.056 13.4773 11.5266 13.1353 11.4234 12.7027L10.4947 8.80945C10.4512 8.62707 10.5134 8.43568 10.6558 8.31371L13.6955 5.70985C14.0333 5.42052 13.8535 4.86726 13.4102 4.83172L9.4205 4.51187C9.23361 4.49689 9.0708 4.3786 8.9988 4.20548L7.46171 0.509888ZM22.5384 0.50989C22.7092 0.0992435 23.2909 0.099242 23.4617 0.509888L24.9988 4.20548C25.0708 4.3786 25.2336 4.49689 25.4205 4.51187L29.4102 4.83172C29.8535 4.86726 30.0333 5.42052 29.6955 5.70985L26.6558 8.31371C26.5134 8.43568 26.4512 8.62707 26.4947 8.80945L27.4234 12.7027C27.5266 13.1353 27.056 13.4773 26.6764 13.2454L23.2607 11.1591C23.1007 11.0614 22.8994 11.0614 22.7394 11.1591L19.3237 13.2454C18.9441 13.4773 18.4735 13.1353 18.5767 12.7027L19.5054 8.80945C19.5489 8.62707 19.4867 8.43568 19.3443 8.31371L16.3046 5.70985C15.9668 5.42052 16.1466 4.86726 16.5899 4.83172L20.5796 4.51187C20.7665 4.49689 20.9293 4.3786 21.0013 4.20548L22.5384 0.50989Z" fill="url(#paint0_radial_2476_47075)"/>
<defs>
<radialGradient id="paint0_radial_2476_47075" cx="0" cy="0" r="1" gradientUnits="userSpaceOnUse" gradientTransform="translate(26.2319 0.201904) rotate(-180) scale(26.1028 24.8687)">
<stop stop-color="#D2B3EA"/>
<stop offset="1" stop-color="#8D7BFE"/>
</radialGradient>
</defs>
</svg>
