<svg width="121" height="24" viewBox="0 0 121 24" fill="none" xmlns="http://www.w3.org/2000/svg">
<g clip-path="url(#clip0_2498_46958)">
<path d="M11.6016 1.71006C11.7724 1.29942 12.3541 1.29942 12.5249 1.71006L15.12 7.94943C15.192 8.12254 15.3548 8.24083 15.5417 8.25581L22.2776 8.79583C22.7209 8.83137 22.9007 9.38462 22.5629 9.67396L17.4309 14.0701C17.2885 14.1921 17.2263 14.3835 17.2698 14.5659L18.8377 21.139C18.9409 21.5716 18.4703 21.9135 18.0907 21.6817L12.3239 18.1593C12.1639 18.0616 11.9626 18.0616 11.8026 18.1593L6.03572 21.6817C5.65617 21.9135 5.18555 21.5716 5.28874 21.139L6.85667 14.5659C6.90017 14.3835 6.83798 14.1921 6.69559 14.0701L1.56353 9.67396C1.22576 9.38462 1.40553 8.83137 1.84885 8.79583L8.58477 8.25581C8.77167 8.24083 8.93447 8.12254 9.00647 7.94943L11.6016 1.71006Z" fill="#F2F4F7"/>
<path d="M11.6016 1.71006C11.7724 1.29942 12.3541 1.29942 12.5249 1.71006L15.12 7.94943C15.192 8.12254 15.3548 8.24083 15.5417 8.25581L22.2776 8.79583C22.7209 8.83137 22.9007 9.38462 22.5629 9.67396L17.4309 14.0701C17.2885 14.1921 17.2263 14.3835 17.2698 14.5659L18.8377 21.139C18.9409 21.5716 18.4703 21.9135 18.0907 21.6817L12.3239 18.1593C12.1639 18.0616 11.9626 18.0616 11.8026 18.1593L6.03572 21.6817C5.65617 21.9135 5.18555 21.5716 5.28874 21.139L6.85667 14.5659C6.90017 14.3835 6.83798 14.1921 6.69559 14.0701L1.56353 9.67396C1.22576 9.38462 1.40553 8.83137 1.84885 8.79583L8.58477 8.25581C8.77167 8.24083 8.93447 8.12254 9.00647 7.94943L11.6016 1.71006Z" fill="#A09DAF"/>
</g>
<g clip-path="url(#clip1_2498_46958)">
<path d="M35.6016 1.71006C35.7724 1.29942 36.3541 1.29942 36.5249 1.71006L39.12 7.94943C39.192 8.12254 39.3548 8.24083 39.5417 8.25581L46.2776 8.79583C46.7209 8.83137 46.9007 9.38462 46.5629 9.67396L41.4309 14.0701C41.2885 14.1921 41.2263 14.3835 41.2698 14.5659L42.8377 21.139C42.9409 21.5716 42.4703 21.9135 42.0907 21.6817L36.3239 18.1593C36.1639 18.0616 35.9626 18.0616 35.8026 18.1593L30.0357 21.6817C29.6562 21.9135 29.1855 21.5716 29.2887 21.139L30.8567 14.5659C30.9002 14.3835 30.838 14.1921 30.6956 14.0701L25.5635 9.67396C25.2258 9.38462 25.4055 8.83137 25.8489 8.79583L32.5848 8.25581C32.7717 8.24083 32.9345 8.12254 33.0065 7.94943L35.6016 1.71006Z" fill="#F2F4F7"/>
<path d="M35.6016 1.71006C35.7724 1.29942 36.3541 1.29942 36.5249 1.71006L39.12 7.94943C39.192 8.12254 39.3548 8.24083 39.5417 8.25581L46.2776 8.79583C46.7209 8.83137 46.9007 9.38462 46.5629 9.67396L41.4309 14.0701C41.2885 14.1921 41.2263 14.3835 41.2698 14.5659L42.8377 21.139C42.9409 21.5716 42.4703 21.9135 42.0907 21.6817L36.3239 18.1593C36.1639 18.0616 35.9626 18.0616 35.8026 18.1593L30.0357 21.6817C29.6562 21.9135 29.1855 21.5716 29.2887 21.139L30.8567 14.5659C30.9002 14.3835 30.838 14.1921 30.6956 14.0701L25.5635 9.67396C25.2258 9.38462 25.4055 8.83137 25.8489 8.79583L32.5848 8.25581C32.7717 8.24083 32.9345 8.12254 33.0065 7.94943L35.6016 1.71006Z" fill="#A09DAF"/>
</g>
<g clip-path="url(#clip2_2498_46958)">
<path d="M59.6016 1.71006C59.7724 1.29942 60.3541 1.29942 60.5249 1.71006L63.12 7.94943C63.192 8.12254 63.3548 8.24083 63.5417 8.25581L70.2776 8.79583C70.7209 8.83137 70.9007 9.38462 70.5629 9.67396L65.4309 14.0701C65.2885 14.1921 65.2263 14.3835 65.2698 14.5659L66.8377 21.139C66.9409 21.5716 66.4703 21.9135 66.0907 21.6817L60.3239 18.1593C60.1639 18.0616 59.9626 18.0616 59.8026 18.1593L54.0357 21.6817C53.6562 21.9135 53.1855 21.5716 53.2887 21.139L54.8567 14.5659C54.9002 14.3835 54.838 14.1921 54.6956 14.0701L49.5635 9.67396C49.2258 9.38462 49.4055 8.83137 49.8489 8.79583L56.5848 8.25581C56.7717 8.24083 56.9345 8.12254 57.0065 7.94943L59.6016 1.71006Z" fill="#F2F4F7"/>
<path d="M59.6016 1.71006C59.7724 1.29942 60.3541 1.29942 60.5249 1.71006L63.12 7.94943C63.192 8.12254 63.3548 8.24083 63.5417 8.25581L70.2776 8.79583C70.7209 8.83137 70.9007 9.38462 70.5629 9.67396L65.4309 14.0701C65.2885 14.1921 65.2263 14.3835 65.2698 14.5659L66.8377 21.139C66.9409 21.5716 66.4703 21.9135 66.0907 21.6817L60.3239 18.1593C60.1639 18.0616 59.9626 18.0616 59.8026 18.1593L54.0357 21.6817C53.6562 21.9135 53.1855 21.5716 53.2887 21.139L54.8567 14.5659C54.9002 14.3835 54.838 14.1921 54.6956 14.0701L49.5635 9.67396C49.2258 9.38462 49.4055 8.83137 49.8489 8.79583L56.5848 8.25581C56.7717 8.24083 56.9345 8.12254 57.0065 7.94943L59.6016 1.71006Z" fill="#A09DAF"/>
</g>
<g clip-path="url(#clip3_2498_46958)">
<path d="M83.6016 1.71006C83.7724 1.29942 84.3541 1.29942 84.5249 1.71006L87.12 7.94943C87.192 8.12254 87.3548 8.24083 87.5417 8.25581L94.2776 8.79583C94.7209 8.83137 94.9007 9.38462 94.5629 9.67396L89.4309 14.0701C89.2885 14.1921 89.2263 14.3835 89.2698 14.5659L90.8377 21.139C90.9409 21.5716 90.4703 21.9135 90.0907 21.6817L84.3239 18.1593C84.1639 18.0616 83.9626 18.0616 83.8026 18.1593L78.0357 21.6817C77.6562 21.9135 77.1855 21.5716 77.2887 21.139L78.8567 14.5659C78.9002 14.3835 78.838 14.1921 78.6956 14.0701L73.5635 9.67396C73.2258 9.38462 73.4055 8.83137 73.8489 8.79583L80.5848 8.25581C80.7717 8.24083 80.9345 8.12254 81.0065 7.94943L83.6016 1.71006Z" fill="#F2F4F7"/>
<path d="M83.6016 1.71006C83.7724 1.29942 84.3541 1.29942 84.5249 1.71006L87.12 7.94943C87.192 8.12254 87.3548 8.24083 87.5417 8.25581L94.2776 8.79583C94.7209 8.83137 94.9007 9.38462 94.5629 9.67396L89.4309 14.0701C89.2885 14.1921 89.2263 14.3835 89.2698 14.5659L90.8377 21.139C90.9409 21.5716 90.4703 21.9135 90.0907 21.6817L84.3239 18.1593C84.1639 18.0616 83.9626 18.0616 83.8026 18.1593L78.0357 21.6817C77.6562 21.9135 77.1855 21.5716 77.2887 21.139L78.8567 14.5659C78.9002 14.3835 78.838 14.1921 78.6956 14.0701L73.5635 9.67396C73.2258 9.38462 73.4055 8.83137 73.8489 8.79583L80.5848 8.25581C80.7717 8.24083 80.9345 8.12254 81.0065 7.94943L83.6016 1.71006Z" fill="#A09DAF"/>
</g>
<g clip-path="url(#clip4_2498_46958)">
<path d="M107.602 1.71006C107.772 1.29942 108.354 1.29942 108.525 1.71006L111.12 7.94943C111.192 8.12254 111.355 8.24083 111.542 8.25581L118.278 8.79583C118.721 8.83137 118.901 9.38462 118.563 9.67396L113.431 14.0701C113.288 14.1921 113.226 14.3835 113.27 14.5659L114.838 21.139C114.941 21.5716 114.47 21.9135 114.091 21.6817L108.324 18.1593C108.164 18.0616 107.963 18.0616 107.803 18.1593L102.036 21.6817C101.656 21.9135 101.186 21.5716 101.289 21.139L102.857 14.5659C102.9 14.3835 102.838 14.1921 102.696 14.0701L97.5635 9.67396C97.2258 9.38462 97.4055 8.83137 97.8489 8.79583L104.585 8.25581C104.772 8.24083 104.934 8.12254 105.006 7.94943L107.602 1.71006Z" fill="#F2F4F7"/>
<path d="M107.602 1.71006C107.772 1.29942 108.354 1.29942 108.525 1.71006L111.12 7.94943C111.192 8.12254 111.355 8.24083 111.542 8.25581L118.278 8.79583C118.721 8.83137 118.901 9.38462 118.563 9.67396L113.431 14.0701C113.288 14.1921 113.226 14.3835 113.27 14.5659L114.838 21.139C114.941 21.5716 114.47 21.9135 114.091 21.6817L108.324 18.1593C108.164 18.0616 107.963 18.0616 107.803 18.1593L102.036 21.6817C101.656 21.9135 101.186 21.5716 101.289 21.139L102.857 14.5659C102.9 14.3835 102.838 14.1921 102.696 14.0701L97.5635 9.67396C97.2258 9.38462 97.4055 8.83137 97.8489 8.79583L104.585 8.25581C104.772 8.24083 104.934 8.12254 105.006 7.94943L107.602 1.71006Z" fill="#A09DAF"/>
</g>
<defs>
<clipPath id="clip0_2498_46958">
<rect width="24" height="24" fill="white" transform="translate(0.0632324)"/>
</clipPath>
<clipPath id="clip1_2498_46958">
<rect width="24" height="24" fill="white" transform="translate(24.0632)"/>
</clipPath>
<clipPath id="clip2_2498_46958">
<rect width="24" height="24" fill="white" transform="translate(48.0632)"/>
</clipPath>
<clipPath id="clip3_2498_46958">
<rect width="24" height="24" fill="white" transform="translate(72.0632)"/>
</clipPath>
<clipPath id="clip4_2498_46958">
<rect width="24" height="24" fill="white" transform="translate(96.0632)"/>
</clipPath>
</defs>
</svg>
