<svg width="24" height="24" viewBox="0 0 24 24" fill="none" xmlns="http://www.w3.org/2000/svg">
<path d="M3 4.90323V19.0968C3 21.2521 4.74786 23 6.90323 23H21.4516V1H6.90323C4.74786 1 3 2.74786 3 4.90323ZM19.3226 20.871H6.90323C5.92327 20.871 5.12903 20.0767 5.12903 19.0968C5.12903 18.1168 5.92327 17.3226 6.90323 17.3226H19.3226V20.871ZM19.3226 15.1935H6.90323C6.28641 15.1935 5.67793 15.3405 5.12903 15.6232V4.90319C5.12903 3.92323 5.92327 3.129 6.90323 3.129H19.3226V15.1935Z" fill="url(#paint0_radial_2251_41947)"/>
<path d="M13.9997 11.2902L15.128 9.22491L17.1932 8.09662L15.128 6.96834L13.9997 4.90308L12.8714 6.96834L10.8062 8.09662L12.8714 9.22491L13.9997 11.2902Z" fill="url(#paint1_radial_2251_41947)"/>
<path d="M9.38747 13.4192L10.0154 12.2729L11.1617 11.645L10.0154 11.0172L9.38747 9.87085L8.75959 11.0172L7.61328 11.645L8.75959 12.2729L9.38747 13.4192Z" fill="url(#paint2_radial_2251_41947)"/>
<defs>
<radialGradient id="paint0_radial_2251_41947" cx="0" cy="0" r="1" gradientUnits="userSpaceOnUse" gradientTransform="translate(19.194 1) rotate(-180) scale(16.194 41.7057)">
<stop stop-color="#B98ADE"/>
<stop offset="0.6875" stop-color="#544BFD"/>
<stop offset="0.817708" stop-color="#5249FE"/>
<stop offset="1" stop-color="#352BFD"/>
</radialGradient>
<radialGradient id="paint1_radial_2251_41947" cx="0" cy="0" r="1" gradientUnits="userSpaceOnUse" gradientTransform="translate(16.4118 4.90308) rotate(-180) scale(5.60561 12.1081)">
<stop stop-color="#B98ADE"/>
<stop offset="0.6875" stop-color="#544BFD"/>
<stop offset="0.817708" stop-color="#5249FE"/>
<stop offset="1" stop-color="#352BFD"/>
</radialGradient>
<radialGradient id="paint2_radial_2251_41947" cx="0" cy="0" r="1" gradientUnits="userSpaceOnUse" gradientTransform="translate(10.7275 9.87085) rotate(-180) scale(3.11423 6.72673)">
<stop stop-color="#B98ADE"/>
<stop offset="0.6875" stop-color="#544BFD"/>
<stop offset="0.817708" stop-color="#5249FE"/>
<stop offset="1" stop-color="#352BFD"/>
</radialGradient>
</defs>
</svg>
