<svg width="29" height="12" viewBox="0 0 29 12" fill="none" xmlns="http://www.w3.org/2000/svg">
<path fill-rule="evenodd" clip-rule="evenodd" d="M28.3576 6.09686C28.3576 4.08032 27.3808 2.48914 25.5139 2.48914C23.6392 2.48914 22.5049 4.08032 22.5049 6.08111C22.5049 8.45213 23.844 9.64945 25.766 9.64945C26.7034 9.64945 27.4123 9.43677 27.948 9.13744V7.56201C27.4123 7.82984 26.7979 7.99525 26.0181 7.99525C25.254 7.99525 24.5766 7.72743 24.4899 6.79793H28.3418C28.3418 6.69553 28.3576 6.28592 28.3576 6.09686ZM24.4663 5.34854C24.4663 4.45842 25.0098 4.08819 25.5061 4.08819C25.9866 4.08819 26.4986 4.45842 26.4986 5.34854H24.4663Z" fill="#635BFF"/>
<path fill-rule="evenodd" clip-rule="evenodd" d="M19.4643 2.48914C18.6923 2.48914 18.196 2.85148 17.9203 3.10355L17.8179 2.61517H16.085V11.7999L18.0542 11.3824L18.0621 9.15319C18.3457 9.358 18.7632 9.64945 19.4564 9.64945C20.8664 9.64945 22.1504 8.51515 22.1504 6.01809C22.1425 3.73372 20.8428 2.48914 19.4643 2.48914ZM18.9916 7.91648C18.5269 7.91648 18.2512 7.75106 18.0621 7.54626L18.0542 4.62384C18.2591 4.3954 18.5426 4.23786 18.9916 4.23786C19.7084 4.23786 20.2047 5.04133 20.2047 6.07323C20.2047 7.12877 19.7163 7.91648 18.9916 7.91648Z" fill="#635BFF"/>
<path fill-rule="evenodd" clip-rule="evenodd" d="M13.3755 2.02442L15.3526 1.59906V0L13.3755 0.417488V2.02442Z" fill="#635BFF"/>
<path d="M15.3526 2.62305H13.3755V9.51554H15.3526V2.62305Z" fill="#635BFF"/>
<path fill-rule="evenodd" clip-rule="evenodd" d="M11.2562 3.20608L11.1302 2.62317H9.42871V9.51567H11.398V4.84452C11.8627 4.23798 12.6505 4.34826 12.8947 4.43491V2.62317C12.6426 2.52865 11.721 2.35535 11.2562 3.20608Z" fill="#635BFF"/>
<path fill-rule="evenodd" clip-rule="evenodd" d="M7.31759 0.913818L5.39557 1.32343L5.3877 7.63302C5.3877 8.79883 6.26206 9.65744 7.42787 9.65744C8.0738 9.65744 8.54643 9.53928 8.80637 9.3975V7.79844C8.5543 7.90084 7.30972 8.26319 7.30972 7.09737V4.30099H8.80637V2.62316H7.30972L7.31759 0.913818Z" fill="#635BFF"/>
<path fill-rule="evenodd" clip-rule="evenodd" d="M1.99292 4.62384C1.99292 4.31663 2.24498 4.19847 2.66247 4.19847C3.26114 4.19847 4.01734 4.37965 4.616 4.70261V2.85148C3.9622 2.59154 3.31628 2.48914 2.66247 2.48914C1.06341 2.48914 0 3.32411 0 4.71837C0 6.89246 2.99331 6.54586 2.99331 7.48324C2.99331 7.84559 2.67823 7.96375 2.23711 7.96375C1.5833 7.96375 0.748328 7.69592 0.0866484 7.33358V9.20833C0.819222 9.52342 1.55967 9.65733 2.23711 9.65733C3.87555 9.65733 5.00198 8.84599 5.00198 7.43598C4.99411 5.08859 1.99292 5.50608 1.99292 4.62384Z" fill="#635BFF"/>
</svg>
