<svg width="32" height="32" viewBox="0 0 32 32" fill="none" xmlns="http://www.w3.org/2000/svg">
<path fill-rule="evenodd" clip-rule="evenodd" d="M5 16C5 9.92487 9.92487 5 16 5C22.0751 5 27 9.92487 27 16C27 22.0751 22.0751 27 16 27C9.92487 27 5 22.0751 5 16ZM16 3C8.8203 3 3 8.8203 3 16C3 23.1797 8.8203 29 16 29C23.1797 29 29 23.1797 29 16C29 8.8203 23.1797 3 16 3ZM16 10.3333C12.8704 10.3333 10.3333 12.8704 10.3333 16C10.3333 19.1296 12.8704 21.6667 16 21.6667C19.1296 21.6667 21.6667 19.1296 21.6667 16C21.6667 12.8704 19.1296 10.3333 16 10.3333ZM8.33333 16C8.33333 11.7658 11.7658 8.33333 16 8.33333C20.2342 8.33333 23.6667 11.7658 23.6667 16C23.6667 20.2342 20.2342 23.6667 16 23.6667C11.7658 23.6667 8.33333 20.2342 8.33333 16ZM16 15.6667C15.8159 15.6667 15.6667 15.8159 15.6667 16C15.6667 16.1841 15.8159 16.3333 16 16.3333C16.1841 16.3333 16.3333 16.1841 16.3333 16C16.3333 15.8159 16.1841 15.6667 16 15.6667ZM13.6667 16C13.6667 14.7113 14.7113 13.6667 16 13.6667C17.2887 13.6667 18.3333 14.7113 18.3333 16C18.3333 17.2887 17.2887 18.3333 16 18.3333C14.7113 18.3333 13.6667 17.2887 13.6667 16Z" fill="url(#paint0_radial_1802_10678)"/>
<defs>
<radialGradient id="paint0_radial_1802_10678" cx="0" cy="0" r="1" gradientUnits="userSpaceOnUse" gradientTransform="translate(25.8188 3) rotate(-180) scale(22.8188 49.2886)">
<stop stop-color="#B98ADE"/>
<stop offset="0.6875" stop-color="#544BFD"/>
<stop offset="0.817708" stop-color="#5249FE"/>
<stop offset="1" stop-color="#352BFD"/>
</radialGradient>
</defs>
</svg>
