<svg width="103" height="64" viewBox="0 0 103 64" fill="none" xmlns="http://www.w3.org/2000/svg">
<path fill-rule="evenodd" clip-rule="evenodd" d="M29.4546 24.3243C32.5311 14.8343 39.7704 7.60425 51.8957 7.60425C63.1159 7.60425 71.4409 15.0153 74.4273 24.5053C71.2597 15.6478 62.3921 9.23116 51.8957 9.23116C41.4893 9.23116 32.7118 15.5578 29.4546 24.3243V24.3243ZM74.3367 38.7855C71.3498 48.2754 62.7546 55.5955 51.8951 55.5955C40.403 55.5955 32.6212 48.3659 29.5447 38.9665C32.8024 47.733 41.5799 53.9696 51.8951 53.9696C62.3015 53.9691 71.1702 47.6424 74.3367 38.7855Z" fill="#736F87"/>
<path fill-rule="evenodd" clip-rule="evenodd" d="M57.958 23.8729C57.505 24.0539 56.9629 23.8729 56.5098 24.2343C56.5098 24.1438 56.4192 23.9634 56.238 24.0539H56.0568C56.5098 23.6918 55.786 23.3309 56.5098 23.3309C57.0535 23.3304 57.5055 23.6918 57.958 23.8729V23.8729ZM101.212 35.3512V33.0013L100.578 33.5438H96.3252V27.3071L96.8673 26.5842H93.2487L93.7913 27.3071V34.7177L93.2487 35.3512H101.212V35.3512ZM86.6427 32.1879H83.7474L85.1956 29.1145L86.6427 32.1879V32.1879ZM90.8054 35.3512L86.5521 26.5842H83.5662L83.9286 27.3071L79.9466 35.3512H83.2037L82.6611 34.7182L83.1131 33.8148H87.2764L87.7284 34.7182L87.0952 35.3512H90.8054V35.3512ZM77.7751 32.8203C77.7751 31.3744 76.5988 30.6509 74.9694 30.109C73.9742 29.7475 72.4355 29.5665 72.4355 28.8441C72.4355 28.4826 72.8885 28.3016 73.6118 28.3016C74.5174 28.3016 76.0551 28.6631 77.322 29.2056V26.3132L76.5988 26.9457C75.8755 26.6747 74.6085 26.4037 73.7024 26.4037C70.7165 26.4037 69.812 27.6686 69.812 28.8436C69.812 30.4705 70.8071 31.1934 72.5261 31.8264C73.793 32.2789 74.9694 32.2789 74.9694 33.0013C74.9694 33.6338 74.2461 33.7238 73.8836 33.7238C72.9791 33.7238 71.2591 33.3628 69.812 32.3689V35.6222L70.5353 34.8987C71.169 35.1702 72.7068 35.6222 73.9737 35.6222C76.5988 35.6227 77.7751 34.4478 77.7751 32.8203V32.8203ZM63.659 29.4765C63.659 30.109 63.0258 30.561 62.2108 30.561H60.4919V28.3916H62.4821C63.1154 28.3916 63.659 28.7531 63.659 29.4765ZM66.6444 35.3512L64.2917 31.9169C65.468 31.4644 66.283 30.561 66.283 29.2961C66.283 27.7591 65.3774 26.5842 62.8446 26.5842H57.4143L57.958 27.3071V34.7177L57.4143 35.3507H61.034L60.4914 34.7177V32.1879H61.5771L63.296 34.7177L62.7534 35.3507H66.6444V35.3512V35.3512ZM54.0671 35.3512V33.0013L53.4339 33.5438H48.9092V31.8264H51.805L52.4388 32.3689V29.5665L51.805 30.109H48.9092V28.3916H53.4339L54.0671 29.0246V26.5842H45.8327L46.3758 27.3071V34.7177L45.8327 35.3512H54.0671V35.3512ZM43.6612 26.5842H40.4936L41.0367 27.3071L38.8653 32.0974L36.6933 27.3071L37.327 26.5842H33.6168L37.6889 35.3512H39.4985L43.6612 26.5842ZM31.3547 35.3512L30.8116 34.7177V27.3071L31.3547 26.5842H27.6445L28.1876 27.3071V34.7177L27.6445 35.3512H31.3547ZM24.2061 26.5842H21.1296L21.6722 27.3071V31.6454L17.148 26.5842H14.4334L14.976 27.3071V34.7177L14.4334 35.3512H17.5099L16.9673 34.7177V30.1995L21.6722 35.3512H23.6629V27.3071L24.2061 26.5842ZM11.447 26.5842H7.73731L8.28044 27.3071V32.0979C8.28044 33.1823 7.55662 33.6338 6.47035 33.6338C5.38463 33.6338 4.66081 33.1823 4.66081 32.0979V27.3071L5.20394 26.5842H1.49316L2.0363 27.3071V32.1879C2.0363 34.6283 3.39386 35.5317 6.47035 35.5317C9.45678 35.5317 10.8138 34.6283 10.8138 32.1879V27.3071L11.447 26.5842V26.5842ZM59.0443 24.1438C58.9537 24.2343 58.863 24.3243 58.6818 24.3243V23.9628C58.7724 23.9634 58.863 24.0539 59.0443 24.1438ZM68.2738 38.2425C68.0925 37.972 68.2738 37.61 68.2738 37.61H55.0622L56.5104 38.8755C56.8728 39.0565 57.2347 39.328 57.4149 39.8694C57.8679 41.0443 57.2347 40.0504 57.2347 41.8573C57.2347 43.4847 56.7817 43.2132 56.7817 43.2132C56.7817 43.2132 56.6911 45.1105 55.6959 46.2855C55.0622 46.9185 55.5147 47.4604 55.5147 47.4604C55.5147 47.4604 55.3335 47.6414 54.9711 48.9974C54.8815 49.4499 55.5147 50.1723 55.9672 49.9913C56.3286 49.8113 55.0617 49.7208 56.5098 49.0879C57.0535 48.9069 56.6004 48.4554 56.6004 48.4554C56.6004 48.4554 57.505 48.3649 57.958 47.009C58.8625 47.19 58.5912 46.647 60.4013 46.196C60.9439 46.1055 61.0345 45.9245 60.9439 45.4726C60.8533 45.0211 61.5776 45.5631 63.3872 43.6652C64.8354 42.2187 64.2917 41.8573 65.2879 41.3153C66.3736 40.7723 66.4642 41.4058 66.8256 40.9533C67.6406 39.8689 67.3693 39.9594 67.7312 39.2364L67.9113 38.8744C67.9113 38.876 68.455 38.4235 68.2738 38.2425V38.2425ZM46.2852 22.9689C45.7426 22.2459 46.1045 21.2515 46.6477 20.2575C47.1002 19.6251 48.1859 19.2636 49.0904 19.6251C50.1762 18.8116 50.4474 19.7156 51.3525 19.2636C52.5294 18.8116 51.8956 20.7095 53.072 21.1615C53.525 19.8961 51.9862 18.9016 52.9813 18.2692C53.7057 17.8172 54.2483 17.5462 54.5201 17.0037C54.9721 16.1903 55.0627 15.5573 55.4246 15.4668C56.1479 15.1958 55.9683 14.4729 55.9683 14.4729C55.9683 14.4729 56.7822 14.7438 57.4154 14.1114C56.9634 13.8399 56.2391 13.6594 56.4203 13.1169C56.6921 12.5744 58.2304 13.7494 58.773 12.7554C57.7779 12.394 56.7827 11.49 56.2391 11.219C55.7871 11.671 55.6059 11.49 55.0627 11.1291C54.1582 10.4061 54.1582 11.0386 53.6156 10.5866C53.1626 11.49 53.7968 11.3995 53.977 11.5805C54.5207 12.213 53.4344 11.038 53.525 12.6649C53.525 13.0264 52.9813 13.1169 52.5299 12.213C52.2581 11.761 50.448 11.8515 50.1767 11.3995C50.448 10.9475 52.6205 9.14014 55.9683 9.59212C51.0817 7.60373 44.4757 9.68262 44.4757 10.4056C43.7519 10.8576 44.0232 11.3095 43.6612 11.3995C43.1181 11.671 42.4849 13.3879 42.4849 13.3879C42.4849 13.3879 42.8468 13.5684 41.7611 14.8338C40.856 15.8283 40.5847 17.3641 40.5847 17.3641C40.5847 17.3641 41.218 18.4486 41.0373 19.714C40.9472 20.7079 40.9472 19.985 41.3997 20.618C41.5804 21.0699 41.8522 22.5158 42.0329 21.9734C42.3042 20.8889 41.4898 19.895 41.5804 18.81C41.671 18.991 41.9423 18.4486 41.9423 18.9005C41.9423 20.256 43.5712 22.6963 43.5712 22.6963C43.5712 22.6963 42.938 23.3288 43.5712 23.3288L43.3905 23.6902C43.3905 23.6902 43.843 23.6902 44.2049 23.9618C44.4762 24.2327 44.748 24.5042 45.0193 24.5042H49.7247C49.7247 24.5042 50.0866 23.0583 50.3579 22.8773C50.6297 22.6063 49.8153 22.8773 49.544 22.6064C49.2722 22.3354 49.1816 22.7874 49.0009 23.0583C48.9108 23.3293 48.7296 23.6908 48.3677 23.8718C48.0052 23.9623 47.1913 24.0528 47.0101 24.0528C46.8289 24.0528 46.2852 22.9689 46.2852 22.9689V22.9689ZM52.4388 22.1554C52.5294 21.8845 52.9813 22.0649 53.3433 22.0649C53.7052 22.0649 53.6151 22.6974 54.1572 22.6074C54.7909 22.4264 54.7909 23.1499 55.6053 23.0594C56.4192 23.0594 55.4241 23.4209 55.4241 23.4209C55.4241 23.4209 54.8815 23.1494 54.6102 23.3304C54.429 23.4209 54.6102 23.2399 54.3384 23.0594C53.8853 22.6074 53.9759 23.0594 53.2526 22.4264C52.7095 21.9744 52.1669 22.5169 52.4388 22.1554V22.1554Z" fill="#736F87"/>
</svg>
