<svg width="44" height="44" viewBox="0 0 44 44" fill="none" xmlns="http://www.w3.org/2000/svg">
<rect width="44" height="44" rx="22" fill="#F0F4FF"/>
<path fill-rule="evenodd" clip-rule="evenodd" d="M21.2927 11.9596C21.6833 11.5691 22.3164 11.5691 22.7069 11.9596L28.5403 17.7929C28.9308 18.1834 28.9308 18.8166 28.5403 19.2071C28.1498 19.5977 27.5166 19.5977 27.1261 19.2071L22.9998 15.0809L22.9998 26.6667C22.9998 27.219 22.5521 27.6667 21.9998 27.6667C21.4476 27.6667 20.9998 27.219 20.9998 26.6667L20.9998 15.0809L16.8736 19.2071C16.4831 19.5977 15.8499 19.5977 15.4594 19.2071C15.0689 18.8166 15.0689 18.1834 15.4594 17.7929L21.2927 11.9596ZM12.6665 26.8334C13.2188 26.8334 13.6665 27.2811 13.6665 27.8334V30.1667C13.6665 30.5203 13.807 30.8594 14.057 31.1095C14.3071 31.3595 14.6462 31.5 14.9998 31.5H28.9998C29.3535 31.5 29.6926 31.3595 29.9426 31.1095C30.1927 30.8594 30.3332 30.5203 30.3332 30.1667V27.8334C30.3332 27.2811 30.7809 26.8334 31.3332 26.8334C31.8855 26.8334 32.3332 27.2811 32.3332 27.8334V30.1667C32.3332 31.0507 31.982 31.8986 31.3569 32.5237C30.7317 33.1488 29.8839 33.5 28.9998 33.5H14.9998C14.1158 33.5 13.2679 33.1488 12.6428 32.5237C12.0177 31.8986 11.6665 31.0507 11.6665 30.1667V27.8334C11.6665 27.2811 12.1142 26.8334 12.6665 26.8334Z" fill="#060033"/>
</svg>
