<svg width="44" height="44" viewBox="0 0 44 44" fill="none" xmlns="http://www.w3.org/2000/svg">
<rect width="44" height="44" rx="22" fill="#F0F4FF"/>
<path fill-rule="evenodd" clip-rule="evenodd" d="M13.8332 11.6667C13.2585 11.6667 12.7074 11.895 12.3011 12.3013C11.8948 12.7076 11.6665 13.2587 11.6665 13.8334V27.8334C11.6665 29.0268 12.1406 30.1714 12.9845 31.0153C13.8284 31.8592 14.973 32.3333 16.1665 32.3333H28.9998C29.8839 32.3333 30.7317 31.9822 31.3569 31.357C31.982 30.7319 32.3332 29.8841 32.3332 29V16.1667C32.3332 15.5921 32.1049 15.041 31.6986 14.6346C31.2922 14.2283 30.7411 14 30.1665 14H27.6665V13.8334C27.6665 13.2587 27.4382 12.7076 27.0319 12.3013C26.6256 11.895 26.0745 11.6667 25.4998 11.6667H13.8332ZM16.1665 30.3333H25.9448C25.763 29.9168 25.6665 29.4634 25.6665 29V15V13.8334C25.6665 13.7892 25.6489 13.7468 25.6177 13.7155C25.5864 13.6842 25.544 13.6667 25.4998 13.6667H13.8332C13.789 13.6667 13.7466 13.6842 13.7153 13.7155C13.6841 13.7468 13.6665 13.7892 13.6665 13.8334V27.8334C13.6665 28.4964 13.9299 29.1323 14.3987 29.6011C14.8676 30.07 15.5035 30.3333 16.1665 30.3333ZM27.6665 29V16H30.1665C30.2107 16 30.2531 16.0176 30.2844 16.0488C30.3156 16.0801 30.3332 16.1225 30.3332 16.1667V29C30.3332 29.3536 30.1927 29.6928 29.9426 29.9428C29.6926 30.1929 29.3535 30.3333 28.9998 30.3333C28.6462 30.3333 28.3071 30.1929 28.057 29.9428C27.807 29.6928 27.6665 29.3536 27.6665 29ZM17.3332 16.3334C16.7809 16.3334 16.3332 16.7811 16.3332 17.3334C16.3332 17.8856 16.7809 18.3334 17.3332 18.3334H21.9998C22.5521 18.3334 22.9998 17.8856 22.9998 17.3334C22.9998 16.7811 22.5521 16.3334 21.9998 16.3334H17.3332ZM16.3332 22C16.3332 21.4477 16.7809 21 17.3332 21H21.9998C22.5521 21 22.9998 21.4477 22.9998 22C22.9998 22.5523 22.5521 23 21.9998 23H17.3332C16.7809 23 16.3332 22.5523 16.3332 22ZM17.3332 25.6667C16.7809 25.6667 16.3332 26.1144 16.3332 26.6667C16.3332 27.219 16.7809 27.6667 17.3332 27.6667H21.9998C22.5521 27.6667 22.9998 27.219 22.9998 26.6667C22.9998 26.1144 22.5521 25.6667 21.9998 25.6667H17.3332Z" fill="#24222A"/>
</svg>
