<svg width="19" height="20" viewBox="0 0 19 20" fill="none" xmlns="http://www.w3.org/2000/svg">
<g clip-path="url(#clip0_6122_160831)">
<path d="M9.47322 19.0527C14.2839 19.0527 18.1837 15.0351 18.1837 10.079C18.1837 5.123 14.2839 1.10535 9.47322 1.10535C4.66253 1.10535 0.762695 5.123 0.762695 10.079C0.762695 15.0351 4.66253 19.0527 9.47322 19.0527Z" fill="#2F84ED"/>
<path d="M4.60498 6.60535H5.6313L6.42077 8.05272L7.18393 6.60535H8.15761L6.86814 8.92114V10.158H5.92077V8.94745L4.60498 6.60535Z" fill="white"/>
<path d="M7.86768 8.39477C7.86768 7.31582 8.7361 6.57898 9.7361 6.57898C10.7361 6.57898 11.6045 7.34214 11.6045 8.39477C11.6045 9.47372 10.7361 10.2369 9.7361 10.2369C8.7361 10.2106 7.86768 9.47372 7.86768 8.39477ZM10.6308 8.39477C10.6308 7.84214 10.2887 7.39477 9.70978 7.39477C9.13083 7.39477 8.78873 7.84214 8.78873 8.39477C8.78873 8.9474 9.13083 9.39477 9.70978 9.39477C10.315 9.39477 10.6308 8.9474 10.6308 8.39477Z" fill="white"/>
<path d="M12.4738 7.3947H11.5527V6.60522H14.3422V7.3947H13.4212V10.1579H12.4738V7.3947Z" fill="white"/>
<path d="M5.8151 14.0525H4.89404V10.4999H6.20983C7.1572 10.4999 7.68352 11.1051 7.68352 11.8946C7.68352 12.6841 7.1572 13.2894 6.20983 13.2894H5.8151V14.0525ZM6.1572 12.4736C6.57825 12.4736 6.73615 12.2367 6.73615 11.8946C6.73615 11.5525 6.57825 11.2894 6.1572 11.2894H5.8151V12.4736H6.1572Z" fill="white"/>
<path d="M7.8418 12.2895C7.8418 11.2106 8.71022 10.4738 9.71022 10.4738C10.7102 10.4738 11.5786 11.2369 11.5786 12.2895C11.5786 13.3685 10.7102 14.1317 9.71022 14.1317C8.71022 14.1053 7.8418 13.3685 7.8418 12.2895ZM10.6313 12.2895C10.6313 11.7369 10.2892 11.2895 9.71022 11.2895C9.13127 11.2895 8.78917 11.7369 8.78917 12.2895C8.78917 12.8422 9.13127 13.2895 9.71022 13.2895C10.2892 13.2895 10.6313 12.8422 10.6313 12.2895Z" fill="white"/>
<path d="M11.5786 13.6049C11.5786 13.2891 11.8155 13.0786 12.0786 13.0786C12.3418 13.0786 12.5786 13.2891 12.5786 13.6049C12.5786 13.9207 12.3418 14.1312 12.0786 14.1312C11.8155 14.1049 11.5786 13.8944 11.5786 13.6049Z" fill="white"/>
</g>
<defs>
<clipPath id="clip0_6122_160831">
<rect width="18.7105" height="20" fill="white"/>
</clipPath>
</defs>
</svg>
